<?xml version="1.0" standalone="no"?>
<!DOCTYPE svg PUBLIC "-//W3C//DTD SVG 20010904//EN"
 "http://www.w3.org/TR/2001/REC-SVG-20010904/DTD/svg10.dtd">
<svg version="1.0" xmlns="http://www.w3.org/2000/svg"
 width="117.000000pt" height="117.000000pt" viewBox="0 0 117.000000 117.000000"
 preserveAspectRatio="xMidYMid meet">
<metadata>
Created by potrace 1.11, written by Peter Selinger 2001-2013
</metadata>
<g transform="translate(0.000000,117.000000) scale(0.100000,-0.100000)"
fill="#000000" stroke="none">
<path d="M250 937 c-91 -26 -171 -94 -216 -185 -26 -51 -29 -67 -29 -152 1
-82 4 -102 27 -150 35 -71 97 -133 167 -167 45 -22 71 -27 131 -27 80 -1 124
12 178 52 l32 24 0 -36 0 -36 98 3 97 2 1 218 c2 241 4 248 68 266 48 13 91 2
123 -31 l28 -29 3 -213 3 -213 100 -1 100 -1 -2 242 c-1 258 -5 285 -53 357
-66 100 -248 119 -337 34 -14 -13 -27 -24 -30 -24 -2 0 -4 15 -4 33 l0 32 -97
0 -98 1 0 -34 0 -33 -33 25 c-67 51 -168 68 -257 43z m221 -207 c69 -50 86
-158 33 -227 -46 -61 -131 -78 -203 -41 -65 34 -86 67 -86 138 0 71 21 104 86
138 53 28 123 25 170 -8z"/>
</g>
</svg>
