<?xml version="1.0" encoding="UTF-8"?>
<svg width="426px" height="454px" viewBox="0 0 426 454" version="1.1" xmlns="http://www.w3.org/2000/svg" xmlns:xlink="http://www.w3.org/1999/xlink">
    <!-- Generator: Sketch 52 (66869) - http://www.bohemiancoding.com/sketch -->
    <title>pws graphic</title>
    <desc>Created with Sketch.</desc>
    <defs>
        <linearGradient x1="121.020791%" y1="29.7896525%" x2="19.7265763%" y2="69.1769306%" id="linearGradient-1">
            <stop stop-color="#59CF96" stop-opacity="0" offset="0%"></stop>
            <stop stop-color="#59CF96" stop-opacity="0.12" offset="100%"></stop>
        </linearGradient>
        <linearGradient x1="0%" y1="50%" x2="100%" y2="50%" id="linearGradient-2">
            <stop stop-color="#59CF96" offset="0%"></stop>
            <stop stop-color="#50F1AF" offset="100%"></stop>
        </linearGradient>
    </defs>
    <g id="all-pages-(desktop)" stroke="none" stroke-width="1" fill="none" fill-rule="evenodd">
        <g id="MedifriendRx-PWS---desktop-" transform="translate(-497.000000, -2438.000000)">
            <g id="pws-graphic" transform="translate(497.000000, 2438.000000)">
                <rect id="bg" fill="url(#linearGradient-1)" fill-rule="nonzero" transform="translate(213.000000, 208.000000) scale(1, -1) rotate(-90.000000) translate(-213.000000, -208.000000) " x="29" y="-5" width="368" height="426" rx="8"></rect>
                <g id="discussion" transform="translate(284.000000, 0.000000)">
                    <rect id="bg" fill="url(#linearGradient-2)" fill-rule="nonzero" transform="translate(41.181126, 180.000000) scale(-1, 1) rotate(-270.000000) translate(-41.181126, -180.000000) " x="-138.318874" y="139.174674" width="359" height="81.650652" rx="4"></rect>
                    <g transform="translate(1.000000, 375.000000)" fill="#59CF96">
                        <path d="M44.61,47 C47.5833752,55.6067995 44.8561477,65.1542619 37.785283,70.8919297 C30.7144184,76.6295975 20.8099627,77.3321406 13,72.65 C12.8076581,72.5314196 12.5859554,72.4690657 12.36,72.47 C12.1540292,72.4710245 11.9514501,72.5225277 11.77,72.62 L4.64,76.41 C4.63478913,76.3367592 4.63478913,76.2632408 4.64,76.19 L8,69.66 C8.23254306,69.2054323 8.1652395,68.6551267 7.83,68.27 C1.3581974,60.8075596 0.761042372,49.9097888 6.37872016,41.7848924 C11.9963979,33.659996 22.402947,30.3703546 31.67,33.79 C31.2710127,32.8301581 30.9369278,31.8446078 30.67,30.84 C20.55419,28.0056652 9.7664685,32.0360228 3.98716985,40.8088657 C-1.7921288,49.5817086 -1.23710112,61.0843457 5.36,69.26 L2.46,75 C1.92513115,75.7861552 1.87005575,76.8039951 2.31697218,77.6432748 C2.76388862,78.4825545 3.63915835,79.0049856 4.59,79 C4.84340527,79.0012552 5.09577619,78.9676058 5.34,78.9 L5.57,78.8 L12.32,75.2 C16.4294488,77.4995846 21.1233812,78.5426807 25.82,78.2 C32.9863921,77.7196716 39.5654922,74.0692446 43.7656055,68.2428444 C47.9657188,62.4164441 49.3494625,55.0208084 47.54,48.07 C46.5414345,47.7764247 45.5627537,47.4190225 44.61,47 Z" id="Path"></path>
                        <path d="M35.63,49.07 L12.63,49.07 C11.9396441,49.07 11.38,48.5103559 11.38,47.82 C11.38,47.1296441 11.9396441,46.57 12.63,46.57 L35.63,46.57 C36.3203559,46.57 36.88,47.1296441 36.88,47.82 C36.88,48.5103559 36.3203559,49.07 35.63,49.07 Z" id="Path"></path>
                        <path d="M35.66,55.71 L12.71,55.71 C12.0196441,55.71 11.46,55.1503559 11.46,54.46 C11.46,53.7696441 12.0196441,53.21 12.71,53.21 L35.66,53.21 C36.3503559,53.21 36.91,53.7696441 36.91,54.46 C36.91,55.1503559 36.3503559,55.71 35.66,55.71 Z" id="Path"></path>
                        <path d="M35.6,62.31 L12.6,62.31 C11.9096441,62.31 11.35,61.7503559 11.35,61.06 C11.35,60.3696441 11.9096441,59.81 12.6,59.81 L35.6,59.81 C36.2903559,59.81 36.85,60.3696441 36.85,61.06 C36.85,61.7503559 36.2903559,62.31 35.6,62.31 Z" id="Path"></path>
                        <g id="speech_bubble" transform="translate(29.000000, 0.000000)">
                            <path d="M44.65,50 C44.3991227,50.0019134 44.1494735,49.9648034 43.91,49.89 C43.8296366,49.870474 43.752273,49.8402013 43.68,49.8 L36.92,46.2 C32.8147252,48.5009959 28.1235438,49.5442535 23.43,49.2 C11.2937454,48.2340522 1.7247166,38.4730455 1,26.32 C0.476023299,15.5697276 7.12649332,5.76925995 17.3099144,2.28488857 C27.4933355,-1.19948281 38.7535986,2.47262721 44.9250945,11.2905378 C51.0965904,20.1084484 50.6908344,31.9453939 43.93,40.32 L46.83,46.05 C47.3583682,46.8390077 47.4086122,47.8550689 46.960664,48.6923553 C46.5127158,49.5296416 45.6395805,50.0516949 44.69,50.05 L44.65,50 Z M36.9,43.54 C37.1059708,43.5410245 37.3085499,43.5925277 37.49,43.69 L44.61,47.48 C44.61,47.42 44.61,47.31 44.61,47.26 L41.3,40.73 C41.0702708,40.2749369 41.1373721,39.7262856 41.47,39.34 C47.8522236,31.9788394 48.5343503,21.262392 43.1369632,13.1514318 C37.739576,5.04047161 27.5910455,1.53121661 18.3362552,4.57560805 C9.08146481,7.61999949 2.9981448,16.4687711 3.47,26.2 C4.09211321,37.1239797 12.6916071,45.9071687 23.6,46.76 C28.0247472,47.0834847 32.4417266,46.0359797 36.25,43.76 C36.4419008,43.6274655 36.6670525,43.5512603 36.9,43.54 Z" id="Shape" fill-rule="nonzero"></path>
                            <path d="M36.85,20.26 L13.9,20.26 C13.2096441,20.26 12.65,19.7003559 12.65,19.01 C12.65,18.3196441 13.2096441,17.76 13.9,17.76 L36.85,17.76 C37.5403559,17.76 38.1,18.3196441 38.1,19.01 C38.1,19.7003559 37.5403559,20.26 36.85,20.26 Z" id="Path"></path>
                            <path d="M36.88,26.9 L13.93,26.9 C13.2396441,26.9 12.68,26.3403559 12.68,25.65 C12.68,24.9596441 13.2396441,24.4 13.93,24.4 L36.88,24.4 C37.5703559,24.4 38.13,24.9596441 38.13,25.65 C38.13,26.3403559 37.5703559,26.9 36.88,26.9 Z" id="Path"></path>
                            <path d="M36.81,33.5 L13.81,33.5 C13.1196441,33.5 12.56,32.9403559 12.56,32.25 C12.56,31.5596441 13.1196441,31 13.81,31 L36.81,31 C37.5003559,31 38.06,31.5596441 38.06,32.25 C38.06,32.9403559 37.5003559,33.5 36.81,33.5 Z" id="Path"></path>
                        </g>
                    </g>
                </g>
                <g id="idea" transform="translate(171.000000, 0.000000)">
                    <rect id="bg" fill="url(#linearGradient-2)" fill-rule="nonzero" transform="translate(41.503226, 123.702273) scale(-1, 1) rotate(-270.000000) translate(-41.503226, -123.702273) " x="-81.6990469" y="82.8769467" width="246.404545" height="81.650652" rx="4"></rect>
                    <g transform="translate(2.000000, 263.000000)" fill="#59CF96">
                        <path d="M39.92,15.0024691 C28.9899269,15.0333647 19.4937401,22.4309246 16.9170436,32.9218459 C14.3403472,43.4127672 19.3491303,54.2854999 29.05,59.2592593 L29.05,69.2839506 C29.2279213,75.0675391 34.0264144,79.6649841 39.885,79.6649841 C45.7435856,79.6649841 50.5420787,75.0675391 50.72,69.2839506 L50.72,59.2592593 C60.4732165,54.3245722 65.5367046,43.4355721 62.9711995,32.9131298 C60.4056943,22.3906876 50.8785069,14.9717849 39.92,14.962963 L39.92,15.0024691 Z M39.92,77.5407407 C36.8807771,77.5408484 34.0797171,75.9157309 32.6,73.2938272 L47.2,73.2938272 C45.7220272,75.9126449 42.9256423,77.5372694 39.89,77.5407407 L39.92,77.5407407 Z M48.29,69.2839506 C48.2927265,69.8147745 48.2391,70.3444182 48.13,70.8641975 L31.67,70.8641975 C31.5609,70.3444182 31.5072735,69.8147745 31.51,69.2839506 L31.5099011,69.0469136 L48.26,69.0469136 L48.29,69.2839506 Z M49,57.4320988 C48.566695,57.6290303 48.2893305,58.0573032 48.29,58.5283951 L48.29,66.617284 L31.51,66.617284 L31.51,58.5185185 C31.5081883,58.048145 31.2316043,57.6210774 30.8,57.4222222 C21.7942567,53.2229704 16.9417978,43.4165517 19.1204396,33.8187952 C21.2990815,24.2210387 29.9260479,17.3992976 39.885,17.3992976 C49.8439521,17.3992976 58.4709185,24.2210387 60.6495604,33.8187952 C62.8282022,43.4165517 57.9757433,53.2229704 48.97,57.4222222 L49,57.4320988 Z" id="Shape" fill-rule="nonzero"></path>
                        <path d="M57.31,40.6518519 C56.6306898,40.6518519 56.08,40.1079607 56.08,39.437037 C56.0926068,31.8530518 50.69346,25.3103212 43.17,23.7925926 C42.844404,23.7350019 42.5556008,23.5513158 42.3678083,23.2823783 C42.1800158,23.0134409 42.1088013,22.6815462 42.17,22.3604938 C42.225769,22.0376302 42.411175,21.750687 42.6841708,21.5647384 C42.9571665,21.3787898 43.2946193,21.3095925 43.62,21.3728395 C51.0492044,22.8994233 56.8156084,28.6959894 58.23,36.0592593 C58.4336551,37.1739974 58.5373902,38.3043005 58.54,39.437037 C58.54,40.1079607 57.9893102,40.6518519 57.31,40.6518519 Z" id="Path"></path>
                        <path d="M39.91,11.3382716 C39.2345982,11.3328481 38.6899777,10.7905423 38.69,10.1234568 L38.69,2.22222222 C38.6480277,1.76387611 38.871901,1.32145756 39.2682563,1.07947188 C39.6646116,0.837486198 40.1653884,0.837486198 40.5617437,1.07947188 C40.958099,1.32145756 41.1819723,1.76387611 41.14,2.22222222 L41.14,10.1234568 C41.14,10.4456457 41.0104111,10.7546386 40.7797413,10.9824606 C40.5490716,11.2102826 40.2362163,11.3382716 39.91,11.3382716 Z" id="Path"></path>
                        <path d="M61.75,19.9308642 C61.4192688,19.9288327 61.1028329,19.7974283 60.87,19.5654321 C60.639172,19.3375894 60.5094826,19.028487 60.5094826,18.7061728 C60.5094826,18.3838587 60.639172,18.0747563 60.87,17.8469136 L66.65,12.2271605 C67.1332492,11.7553321 67.9122737,11.759754 68.39,12.2370371 C68.8677263,12.7143202 68.8632491,13.4837271 68.38,13.9555556 L62.6,19.5753086 C62.3753702,19.8001058 62.069773,19.9279373 61.75,19.9308642 Z" id="Path"></path>
                        <path d="M78,40.6518519 L69.86,40.6518519 C69.1806898,40.6518519 68.63,40.1079607 68.63,39.437037 C68.63,38.7661133 69.1806898,38.2222222 69.86,38.2222222 L78,38.2222222 C78.6793102,38.2222222 79.23,38.7661133 79.23,39.437037 C79.23,40.1079607 78.6793102,40.6518519 78,40.6518519 Z" id="Path"></path>
                        <path d="M17.46,19.9308642 C17.1335119,19.9320956 16.8201466,19.804028 16.59,19.5753086 L10.81,13.9555556 C10.3267508,13.4837271 10.3222737,12.7143202 10.8,12.237037 C11.2777263,11.7597539 12.0567508,11.755332 12.54,12.2271605 L18.32,17.8469136 C18.550828,18.0747563 18.6805174,18.3838587 18.6805174,18.7061728 C18.6805174,19.028487 18.550828,19.3375894 18.32,19.5654321 C18.0920877,19.7926743 17.7837734,19.9236835 17.46,19.9308642 Z" id="Path"></path>
                        <path d="M1.23,40.6518519 C0.550689758,40.6518519 8.31915114e-17,40.1079607 0,39.437037 C-8.31915114e-17,38.7661133 0.550689758,38.2222222 1.23,38.2222222 L9.35,38.2222222 C10.0293102,38.2222222 10.58,38.7661133 10.58,39.437037 C10.58,40.1079607 10.0293102,40.6518519 9.35,40.6518519 L1.23,40.6518519 Z" id="Path"></path>
                    </g>
                </g>
                <g id="brainstorm" transform="translate(59.000000, 0.000000)">
                    <rect id="bg" fill="url(#linearGradient-2)" fill-rule="nonzero" transform="translate(40.825326, 73.931818) scale(-1, 1) rotate(-270.000000) translate(-40.825326, -73.931818) " x="-32.6064922" y="33.1064922" width="146.863636" height="81.650652" rx="4"></rect>
                    <g transform="translate(0.000000, 164.000000)" fill="#59CF96">
                        <g id="brain" transform="translate(0.000000, 22.000000)">
                            <path d="M21.33,0.21 C19.3282551,0.208517186 17.4662212,1.23584623 16.4,2.93 C12.5128215,3.02746891 9.4096094,6.20161159 9.4,10.09 C9.38478996,10.3764649 9.38478996,10.6635351 9.4,10.95 C6.75283452,12.16411 5.05422485,14.8076933 5.05,17.72 L5.05,17.8 C2.91596392,19.1658862 1.62642025,21.526279 1.63,24.06 C1.6249852,25.2428962 1.90632679,26.4094345 2.45,27.46 C0.863584941,29.2685622 -0.00766534097,31.594267 0,34 C0.00894228721,37.7234082 2.08583199,41.1335146 5.39,42.85 C4.99856573,43.7420058 4.79761451,44.7058904 4.8,45.68 C4.77576597,48.8927474 6.90615596,51.7237079 10,52.59 C10.7331336,56.8459963 14.4962363,59.9069837 18.8123501,59.7581522 C23.1284639,59.6093207 26.6717762,56.2963879 27.11,52 C27.11,51.76 27.11,51.53 27.11,51.29 L27.11,6 C27.0990637,2.81070984 24.5192665,0.226449282 21.33,0.21 Z M19.16,44.91 C22.5739377,45.2863601 25.0964956,48.268332 24.9017288,51.6974257 C24.706962,55.1265194 21.8629748,57.8036806 18.4283776,57.7910553 C14.9937803,57.77843 12.1695517,55.0804329 12,51.65 C12.0048167,51.6034576 12.0048167,51.5565424 12,51.51 C12,51.45 12,51.38 12,51.32 C12,51.26 11.95,51.21 11.92,51.16 L11.78,51 L11.65,50.86 C11.6029485,50.8175353 11.5487886,50.7836853 11.49,50.76 C11.433778,50.7255359 11.3732561,50.6986374 11.31,50.68 C11.2476884,50.6639112 11.1823116,50.6639112 11.12,50.68 C8.72164517,50.2512687 6.9814722,48.1563032 7,45.72 C6.99636815,44.7533671 7.27814102,43.8071669 7.81,43 L7.81,42.94 C7.83932562,42.8894939 7.86280997,42.8358154 7.88,42.78 C7.93503923,42.7159306 7.975931,42.6409623 8,42.56 C8,42.5 8,42.44 8,42.38 C8.00530464,42.3234575 8.00530464,42.2665425 8,42.21 L8,42.07 C7.95304787,41.9054532 7.86731694,41.7545668 7.75,41.63 L7.63,41.52 L7.49,41.43 L7.35,41.36 L7.27,41.36 C4.2598279,40.1931558 2.27440669,37.2984117 2.27,34.07 C2.22803833,32.3468816 2.76693767,30.6597392 3.8,29.28 C5.1929566,30.6941254 7.09503684,31.4902613 9.08,31.49 C9.68199038,31.49 10.17,31.0019904 10.17,30.4 C10.17,29.7980096 9.68199038,29.31 9.08,29.31 C6.65153072,29.310418 4.5397093,27.6452377 3.97368986,25.2836524 C3.40767042,22.9220671 4.53519303,20.4804881 6.7,19.38 L7.36,19 L7.29,18.27 C7.29,18.07 7.29,17.88 7.29,17.68 C7.29882293,15.3872428 8.79173391,13.3643282 10.98,12.68 C11.484014,12.5179125 12.0105731,12.4369034 12.54,12.44 C15.4427354,12.4455028 17.7944972,14.7972646 17.8,17.7 C17.801114,18.2929625 17.6996168,18.8816463 17.5,19.44 C17.3011775,20.0088533 17.6011467,20.6311775 18.17,20.83 C18.7388533,21.0288225 19.3611775,20.7288533 19.56,20.16 C19.8437779,19.3774505 19.992561,18.5523811 20,17.72 C19.9944824,13.6149072 16.6650965,10.2899963 12.56,10.29 C12.2457017,10.2897435 11.931715,10.3097852 11.62,10.35 C11.6150106,10.2634051 11.6150106,10.1765949 11.62,10.09 C11.7074865,7.84451828 13.282271,5.93325624 15.4695668,5.41791256 C17.6568626,4.90256887 19.9192576,5.90976198 21,7.88 C21.1786328,8.23726559 21.5342952,8.47209315 21.9330127,8.4960254 C22.3317302,8.51995766 22.712928,8.32935874 22.9330127,7.9960254 C23.1530974,7.66269207 23.1786328,7.23726559 23,6.88 C22.1646423,5.19364668 20.6989444,3.90397627 18.92,3.29 C19.9887936,2.32451672 21.5263639,2.08003927 22.8419056,2.66640738 C24.1574473,3.25277549 25.0035212,4.5596996 25,6 L25,45.58 C23.5647599,43.9634493 21.5716184,42.9490188 19.42,42.74 C19.0323668,42.7007008 18.6532131,42.8711866 18.4253624,43.1872372 C18.1975117,43.5032878 18.15558,43.9168874 18.3153624,44.2722372 C18.4751449,44.627587 18.8123668,44.8707008 19.2,44.91 L19.16,44.91 Z" id="Shape" fill-rule="nonzero"></path>
                            <path d="M16.38,28.71 C13.3573855,28.7044843 10.909995,26.2526195 10.91,23.23 C10.9060615,22.3832252 11.1013176,21.5473921 11.48,20.79 C11.7561424,20.2515224 12.4165224,20.0388576 12.955,20.315 C13.4934776,20.5911424 13.7061424,21.2515224 13.43,21.79 C12.9153435,22.8117546 12.9684278,24.0275077 13.5701832,25.0005156 C14.1719386,25.9735235 15.2359557,26.5640666 16.38,26.56 C17.2602629,26.5570229 18.1014247,26.1960093 18.71,25.56 C19.1377279,25.1407428 19.8222721,25.1407428 20.25,25.56 C20.4564367,25.7630312 20.5727022,26.0404525 20.5727022,26.33 C20.5727022,26.6195475 20.4564367,26.8969688 20.25,27.1 C19.2287546,28.1348967 17.8339349,28.7151705 16.38,28.71 Z" id="Path"></path>
                            <path d="M12.92,46.25 C12.5586938,46.2572073 12.2161096,46.0896389 12,45.8 C10.4331462,43.6339848 10.3228404,40.738144 11.7203814,38.4592118 C13.1179223,36.1802796 15.7489959,34.9655725 18.39,35.38 C19.4049846,35.5398494 20.3678212,35.9373193 21.2,36.54 C21.5657175,36.9101158 21.6188458,37.4871134 21.3268628,37.9177883 C21.0348798,38.3484633 20.479209,38.5127158 20,38.31 C19.4420882,37.9032816 18.7932954,37.6389586 18.11,37.54 C16.3325487,37.2498988 14.5563794,38.0647351 13.6169087,39.6012527 C12.6774379,41.1377703 12.7616753,43.0901124 13.83,44.54 C14.1344983,45.0246934 14.0122087,45.6623463 13.55,46 C13.3730202,46.1500365 13.1517012,46.2378615 12.92,46.25 Z" id="Path"></path>
                            <path d="M34.5,0.21 C36.5007694,0.212302943 38.3610964,1.23869027 39.43,2.93 C43.3194536,3.02224208 46.4256675,6.19945516 46.43,10.09 C46.4501996,10.3763108 46.4501996,10.6636892 46.43,10.95 C49.0805919,12.1601591 50.7807926,14.8062187 50.78,17.72 L50.78,17.8 C54.0174116,19.8608824 55.1456038,24.0525503 53.38,27.46 C54.966837,29.2676049 55.835066,31.5947432 55.82,34 C55.8130009,37.7212288 53.7402924,41.1307958 50.44,42.85 C51.2567716,44.7317814 51.2246995,46.8739605 50.3519594,48.7304469 C49.4792194,50.5869333 47.8501361,51.9783526 45.88,52.55 C45.2231905,56.8824095 41.4304508,60.0393005 37.0507831,59.8990083 C32.6711154,59.7587161 29.0881907,56.3655633 28.71,52 C28.71,51.76 28.71,51.53 28.71,51.29 L28.71,6 C28.726406,2.8090916 31.3090916,0.226406023 34.5,0.21 Z M36.66,44.91 C33.2400298,45.2707787 30.7022143,48.2475945 30.8870543,51.6815706 C31.0718942,55.1155467 33.9145854,57.8027471 37.3535223,57.7943328 C40.7924592,57.7859185 43.6219665,55.0848395 43.79,51.65 C43.7802881,51.6038386 43.7802881,51.5561614 43.79,51.51 C43.7854704,51.4467477 43.7854704,51.3832523 43.79,51.32 C43.8126146,51.264735 43.8393568,51.2112506 43.87,51.16 L43.98,51.01 C44.0152967,50.9564682 44.0592258,50.9091599 44.11,50.87 C44.1570515,50.8275353 44.2112114,50.7936853 44.27,50.77 L44.44,50.69 C44.5024597,50.6751228 44.5675403,50.6751228 44.63,50.69 C46.3041568,50.4177231 47.7261214,49.315273 48.4069252,47.7617475 C49.087729,46.2082219 48.9345268,44.4154841 48,43 C47.9971281,42.9801031 47.9971281,42.9598969 48,42.94 C47.9706744,42.8894939 47.94719,42.8358154 47.93,42.78 C47.9197353,42.7170826 47.9197353,42.6529174 47.93,42.59 C47.9250827,42.5301008 47.9250827,42.4698992 47.93,42.41 C47.9196666,42.3538044 47.9196666,42.2961956 47.93,42.24 C47.9253216,42.1934506 47.9253216,42.1465494 47.93,42.1 C47.9742299,41.9343245 48.0603199,41.782806 48.18,41.66 C48.2150745,41.618298 48.2554112,41.5813227 48.3,41.55 C48.3436102,41.5154925 48.3905016,41.485348 48.44,41.46 L48.59,41.39 C48.6127108,41.3823777 48.6372892,41.3823777 48.66,41.39 C51.6683427,40.2208464 53.65278,37.3275368 53.66,34.1 C53.6715974,32.3511934 53.0859851,30.650801 52,29.28 C50.6083298,30.6960263 48.7054143,31.4925117 46.72,31.49 C46.1180096,31.49 45.63,31.0019904 45.63,30.4 C45.63,29.7980096 46.1180096,29.31 46.72,29.31 C49.1484693,29.310418 51.2602907,27.6452377 51.8263101,25.2836524 C52.3923296,22.9220671 51.264807,20.4804881 49.1,19.38 L48.46,19 L48.53,18.27 C48.5399578,18.0734594 48.5399578,17.8765406 48.53,17.68 C48.5211771,15.3872428 47.0282661,13.3643282 44.84,12.68 C44.335986,12.5179125 43.8094269,12.4369034 43.28,12.44 C40.3788882,12.4455154 38.0299948,14.798883 38.03,17.7 C38.0302751,18.2920052 38.1282585,18.8799059 38.32,19.44 C38.4871743,19.8150899 38.4293462,20.2523031 38.1704038,20.5710327 C37.9114614,20.8897622 37.4953585,21.0359057 37.0939818,20.9490931 C36.6926051,20.8622805 36.3740858,20.5572478 36.27,20.16 C35.9907957,19.3699364 35.8487486,18.5379463 35.85,17.7 C35.8529786,15.5647685 36.7732085,13.5337357 38.3765746,12.1236154 C39.9799407,10.713495 42.1118775,10.0602238 44.23,10.33 C44.2349894,10.2434051 44.2349894,10.1565949 44.23,10.07 C44.2070963,7.7654413 42.6119416,5.77507732 40.3676966,5.25078752 C38.1234516,4.72649773 35.8115689,5.80411831 34.77,7.86 C34.4938576,8.41228471 33.8222848,8.63614231 33.27,8.35999994 C32.7177153,8.08385758 32.4938577,7.41228474 32.77,6.86 C33.5986294,5.1722661 35.0620257,3.88145712 36.84,3.27 C35.7644447,2.36703376 34.2653869,2.16332865 32.9878768,2.74653976 C31.7103668,3.32975087 30.8823012,4.5958384 30.86,6 L30.86,45.58 C32.2976892,43.9666225 34.2895058,42.9528664 36.44,42.74 C37.039229,42.6792487 37.5742487,43.115771 37.635,43.715 C37.6957513,44.314229 37.259229,44.8492487 36.66,44.91 Z" id="Shape" fill-rule="nonzero"></path>
                            <path d="M39.45,28.71 C37.9932688,28.7144786 36.595601,28.1345184 35.57,27.1 C35.1507428,26.6722721 35.1507428,25.9877279 35.57,25.56 C36.0011242,25.1395387 36.6888758,25.1395387 37.12,25.56 C37.7285753,26.1960093 38.5697371,26.5570229 39.45,26.56 C40.5922656,26.5605848 41.6530891,25.9686461 42.2524299,24.9962461 C42.8517708,24.0238462 42.9038462,22.8101633 42.39,21.79 C42.2113672,21.4327344 42.2369026,21.0073079 42.4569873,20.6739746 C42.677072,20.3406413 43.0582698,20.1500423 43.4569873,20.1739746 C43.8557048,20.1979069 44.2113672,20.4327344 44.39,20.79 C45.2393973,22.4855509 45.1499739,24.5000733 44.1536845,26.1136954 C43.1573952,27.7273174 41.3964094,28.7097767 39.5,28.71 L39.45,28.71 Z" id="Path"></path>
                            <path d="M42.91,46.25 C42.4952959,46.2606311 42.1105078,46.0349375 41.9173849,45.6677918 C41.724262,45.300646 41.7562878,44.8557035 42,44.52 C42.6892204,43.5668814 42.9711075,42.3787968 42.7835225,41.2176458 C42.5959375,40.0564948 41.9542814,39.0176094 41,38.33 C40.0518045,37.6318624 38.8615471,37.346922 37.7,37.54 C37.0197643,37.6389537 36.3742132,37.903355 35.82,38.31 C35.5046205,38.5545952 35.0807793,38.6072655 34.7151257,38.4473015 C34.3494721,38.2873376 34.1004832,37.9403216 34.0660586,37.5426962 C34.0316339,37.1450708 34.2172789,36.7604261 34.55,36.54 C37.1863909,34.6452695 40.8085061,34.9456728 43.0967415,37.2488314 C45.3849768,39.55199 45.6618283,43.1759814 43.75,45.8 C43.5538725,46.0709343 43.2442122,46.2368238 42.91,46.25 Z" id="Path"></path>
                        </g>
                        <path d="M71.11,26 C76.5725835,25.8282215 80.9119198,21.3502838 80.9119198,15.885 C80.9119198,10.4197162 76.5725835,5.9417785 71.11,5.77 C70.6754817,5.77142637 70.2414146,5.79813819 69.81,5.85 C67.315019,2.17974089 62.8707229,0.352316081 58.5156003,1.2059201 C54.1604778,2.05952412 50.7348627,5.42945151 49.81,9.77 C45.5648109,10.3289893 42.476078,14.077728 42.7394008,18.3514571 C43.0027237,22.6251863 46.5282983,25.9663891 50.81,26 L59.56,26 L54.9,33.21 C54.7213672,33.5194011 54.7213672,33.9005989 54.9,34.21 C55.0741716,34.5283462 55.4071322,34.7273572 55.77,34.73 L62.63,34.73 L61.73,46.56 C61.7066085,47.0081524 61.9846291,47.4170061 62.41,47.56 C62.5068658,47.591865 62.6080356,47.6087267 62.71,47.61 C63.0574864,47.6085504 63.3793085,47.4268156 63.56,47.13 L74.47,29.26 C74.6523607,28.9524694 74.6566604,28.570976 74.4812775,28.2594133 C74.3058945,27.9478507 73.9775155,27.7536268 73.62,27.75 L66.76,27.75 L66.91,26 L71.11,26 Z M50.84,24 C47.9211292,24.0137439 45.3946866,21.9738514 44.7930842,19.1176179 C44.1914818,16.2613843 45.6804671,13.3757307 48.3568971,12.2109484 C51.0333271,11.046166 54.1598185,11.9231641 55.84,14.31 C56.1603252,14.7628735 56.7871265,14.8703252 57.24,14.55 C57.6928735,14.2296748 57.8003252,13.6028735 57.48,13.15 C56.1633079,11.3015018 54.1394006,10.0813645 51.89,9.78 C52.9447285,5.79323517 56.5460945,3.01222592 60.67,3 C63.3846231,2.99434388 65.9567734,4.21427804 67.67,6.32 C65.8959491,6.96211101 64.3347524,8.0836803 63.16,9.56 C62.8175835,9.99906638 62.8959337,10.6325834 63.335,10.9749999 C63.7740664,11.3174165 64.4075834,11.2390663 64.75,10.8 C67.117822,7.86300578 71.198156,6.94661311 74.5944629,8.58905509 C77.9907698,10.2314971 79.8060048,13.9989661 78.9740098,17.6786808 C78.1420148,21.3583955 74.8825392,23.9784566 71.11,24 L67.11,24 L67.7,17 C67.7220398,16.5542944 67.4460951,16.1479276 67.0236825,16.0040288 C66.6012699,15.86013 66.1346354,16.0135302 65.88,16.38 L60.88,24.04 L50.84,24 Z M71.84,29.78 L64,42.56 L64.68,33.78 C64.6978361,33.5033842 64.6000566,33.2317745 64.41,33.03 C64.2239059,32.8292949 63.9636792,32.7136386 63.69,32.71 L57.58,32.71 L65.36,20.71 L64.69,28.71 C64.6676242,28.9887824 64.7630176,29.2641957 64.9530338,29.4694132 C65.1430499,29.6746306 65.4103225,29.7908965 65.69,29.79 L71.84,29.78 Z" id="Shape" fill-rule="nonzero"></path>
                    </g>
                </g>
            </g>
        </g>
    </g>
</svg>