<?xml version="1.0" encoding="UTF-8"?>
<svg width="20px" height="40px" viewBox="0 0 20 40" version="1.1" xmlns="http://www.w3.org/2000/svg" xmlns:xlink="http://www.w3.org/1999/xlink">
    <!-- Generator: Sketch 51.2 (57519) - http://www.bohemiancoding.com/sketch -->
    <title>back to top</title>
    <desc>Created with Sketch.</desc>
    <defs></defs>
    <g id="all-pages-(desktop)" stroke="none" stroke-width="1" fill="none" fill-rule="evenodd">
        <g id="Kurate---desktop" transform="translate(-680.000000, -17477.000000)" fill="#000000">
            <g id="back-to-top" transform="translate(670.000000, 17477.000000)">
                <g id="startup-(1)" transform="translate(20.000000, 20.000000) rotate(-45.000000) translate(-20.000000, -20.000000) translate(5.848276, 5.895317)">
                    <path d="M28.0610759,0.24214876 C27.9058759,0.087107438 27.6953931,5.50964187e-05 27.4758621,5.50964187e-05 L21.2075034,5.50964187e-05 C20.9880276,5.50964187e-05 20.7775448,0.087107438 20.6222897,0.24214876 L17.142731,3.7169146 L11.8969931,3.13476584 C11.6470621,3.10705234 11.3981241,3.19421488 11.2203586,3.37184573 L8.08645517,6.50181818 C7.89230345,6.69575758 7.80711724,6.97322314 7.85903448,7.24242424 C7.91095172,7.51173554 8.09329655,7.73774105 8.34571034,7.84573003 L11.6096552,9.24253444 L11.2203586,9.63134986 C10.8972138,9.95404959 10.8972138,10.4773554 11.2204138,10.8001102 L12.438731,12.0166942 C11.9842207,12.1624793 11.5675586,12.4143802 11.2203586,12.7611019 C10.6454069,13.3352617 10.3288276,14.0985675 10.3289379,14.9104683 L10.3291034,17.1234711 C10.3291034,17.5798898 10.6996414,17.9498623 11.1566897,17.9498623 L13.3726345,17.9498623 C14.1855448,17.9498623 14.9498483,17.633719 15.5248,17.0596143 C15.8720552,16.7127824 16.1243034,16.2967493 16.2702345,15.8430303 L17.4884414,17.0595592 C17.6500414,17.2209366 17.8618483,17.3016529 18.0736,17.3016529 C18.2854069,17.3016529 18.4972138,17.2209366 18.6587586,17.0595592 L19.0480552,16.6707989 L20.4469517,19.9304683 C20.5550897,20.1824793 20.7814621,20.364573 21.0511448,20.4164187 C21.1032276,20.4264463 21.1556414,20.4313499 21.207669,20.4313499 C21.4249931,20.4313499 21.6361931,20.34573 21.7928276,20.1892562 L24.9268966,17.0595041 C25.1046621,16.8819835 25.192,16.6333884 25.1642483,16.3838017 L24.5812414,11.1452342 L28.0609655,7.67035813 C28.2161655,7.5153719 28.3033379,7.30517906 28.3033379,7.08595041 L28.3035034,0.826666667 C28.3034483,0.60738292 28.216331,0.397134986 28.0610759,0.24214876 Z M10.1212138,6.80721763 L12.1095724,4.82137741 L15.6440276,5.21360882 L12.8702345,7.98363636 L10.1212138,6.80721763 Z M14.3544276,15.8905785 C14.0921379,16.152562 13.7434483,16.2968044 13.3726345,16.2968044 L11.9842207,16.2968044 L11.9841103,14.9101377 C11.9840552,14.5397796 12.1284414,14.1916253 12.390731,13.9297521 C12.6530207,13.6677686 13.0018207,13.5235262 13.3728,13.5235262 C14.1383172,13.5235813 14.7611034,14.1456198 14.7611034,14.9104132 C14.7611586,15.280551 14.6167724,15.6287052 14.3544276,15.8905785 Z M21.4867862,18.157135 L20.3086345,15.4119008 L23.0824276,12.6418182 L23.4752552,16.1714601 L21.4867862,18.157135 Z M23.1314759,10.2553168 C23.130869,10.255978 23.1302069,10.2564738 23.1295448,10.257135 L20.3873655,12.9956474 L18.0736,15.3062259 L12.9759448,10.2157025 L13.6443034,9.54826446 C13.6443586,9.54820937 13.6444138,9.54815427 13.6444138,9.54815427 L18.0319448,5.16672176 C18.0321103,5.16661157 18.0321655,5.16644628 18.0322759,5.16633609 L21.2076138,1.9953168 L26.305269,7.08600551 L23.1314759,10.2553168 Z M26.6482207,5.09085399 L23.2056276,1.65294766 L26.648331,1.65294766 L26.6482207,5.09085399 Z" id="Shape" fill-rule="nonzero"></path>
                    <path d="M18.6593103,9.63140496 C18.5048276,9.47768595 18.2918621,9.38903581 18.073931,9.38903581 C17.856,9.38903581 17.6424828,9.47768595 17.4885517,9.63140496 C17.3346207,9.78512397 17.2463448,9.99834711 17.2463448,10.215978 C17.2463448,10.4330028 17.3346207,10.646281 17.4885517,10.8 C17.6424828,10.953719 17.856,11.0419284 18.073931,11.0419284 C18.2918621,11.0419284 18.5048276,10.953719 18.6593103,10.8 C18.8132414,10.646281 18.9015172,10.4330579 18.9015172,10.215978 C18.9014621,9.99834711 18.8132414,9.78512397 18.6593103,9.63140496 Z" id="Shape" fill-rule="nonzero"></path>
                    <path d="M21.7930483,6.50143251 C21.6385655,6.3477135 21.4256,6.25950413 21.207669,6.25950413 C20.9897379,6.25950413 20.7762207,6.3477135 20.6222897,6.50143251 C20.4683586,6.65515152 20.3800828,6.86837466 20.3800828,7.08595041 C20.3800828,7.30358127 20.4683586,7.51680441 20.6222897,7.67052342 C20.7762207,7.82424242 20.9897379,7.91239669 21.207669,7.91239669 C21.4256,7.91239669 21.6385655,7.82424242 21.7930483,7.67052342 C21.9469793,7.51625344 22.0352552,7.30358127 22.0352552,7.08595041 C22.0352552,6.86837466 21.9469793,6.65515152 21.7930483,6.50143251 Z" id="Shape" fill-rule="nonzero"></path>
                    <path d="M8.60772414,19.668595 C8.28457931,19.3458402 7.76055172,19.3458402 7.43735172,19.668595 L0.297544828,26.7984573 C-0.0256551724,27.121157 -0.0256551724,27.6444628 0.297544828,27.9672176 C0.459144828,28.128595 0.670951724,28.2093113 0.882703448,28.2093113 C1.09451034,28.2093113 1.30631724,28.128595 1.46791724,27.9672176 L8.60766897,20.8373554 C8.93086897,20.5146006 8.93086897,19.9912948 8.60772414,19.668595 Z" id="Shape" fill-rule="nonzero"></path>
                    <path d="M12.9953655,21.5464463 C12.6721655,21.2235813 12.1481931,21.2236915 11.8249931,21.5464463 L7.19249655,26.1725069 C6.86929655,26.4952066 6.86929655,27.0185124 7.19249655,27.3412672 C7.35409655,27.5026997 7.56584828,27.5833609 7.77765517,27.5833609 C7.9894069,27.5833609 8.20126897,27.5026446 8.36286897,27.3412672 L12.9953655,22.7152066 C13.3185655,22.3925069 13.3185655,21.8692011 12.9953655,21.5464463 Z" id="Shape" fill-rule="nonzero"></path>
                    <path d="M6.10063448,15.9128926 C5.77737931,15.5901377 5.25346207,15.5901377 4.93026207,15.9128926 L0.297544828,20.5390634 C-0.0256551724,20.8617631 -0.0256551724,21.3850138 0.297544828,21.7078237 C0.4592,21.8692011 0.670951724,21.9498623 0.882758621,21.9498623 C1.09451034,21.9498623 1.30637241,21.869146 1.46797241,21.7078237 L6.10057931,17.0816529 C6.42383448,16.7589532 6.42383448,16.2357025 6.10063448,15.9128926 Z" id="Shape" fill-rule="nonzero"></path>
                </g>
            </g>
        </g>
    </g>
</svg>