<?xml version="1.0" encoding="UTF-8"?>
<svg width="22px" height="22px" viewBox="0 0 22 22" version="1.1" xmlns="http://www.w3.org/2000/svg" xmlns:xlink="http://www.w3.org/1999/xlink">
    <!-- Generator: Sketch 51.2 (57519) - http://www.bohemiancoding.com/sketch -->
    <title>edit-2</title>
    <desc>Created with Sketch.</desc>
    <defs></defs>
    <g id="all-pages-(desktop)" stroke="none" stroke-width="1" fill="none" fill-rule="evenodd">
        <g id="Kurate---desktop" transform="translate(-795.000000, -1074.000000)" fill="#000000" fill-rule="nonzero">
            <g id="intro-copy" transform="translate(144.000000, 912.000000)">
                <g id="ui/ux" transform="translate(651.000000, 0.000000)">
                    <g id="tools" transform="translate(0.000000, 160.000000)">
                        <g id="Group-6">
                            <g id="edit-2" transform="translate(0.000000, 2.000000)">
                                <path d="M15.4,2.65563492 L2.2,15.8556349 L2.2,19.8 L6.14436508,19.8 L19.3443651,6.6 L15.4,2.65563492 Z M16.1778175,0.322182541 L21.6778175,5.82218254 C22.1073942,6.25175926 22.1073942,6.94824074 21.6778175,7.37781746 L7.37781746,21.6778175 C7.17152744,21.8841075 6.89173814,22 6.6,22 L1.1,22 C0.492486775,22 0,21.5075132 0,20.9 L0,15.4 C0,15.1082619 0.115892524,14.8284726 0.322182541,14.6221825 L14.6221825,0.322182541 C15.0517593,-0.10739418 15.7482407,-0.10739418 16.1778175,0.322182541 Z" id="Shape"></path>
                            </g>
                        </g>
                    </g>
                </g>
            </g>
        </g>
    </g>
</svg>