<?xml version="1.0" encoding="UTF-8"?>
<svg width="22px" height="22px" viewBox="0 0 22 22" version="1.1" xmlns="http://www.w3.org/2000/svg" xmlns:xlink="http://www.w3.org/1999/xlink">
    <!-- Generator: Sketch 51.2 (57519) - http://www.bohemiancoding.com/sketch -->
    <title>layout</title>
    <desc>Created with Sketch.</desc>
    <defs></defs>
    <g id="all-pages-(desktop)" stroke="none" stroke-width="1" fill="none" fill-rule="evenodd">
        <g id="Kurate---desktop" transform="translate(-794.000000, -917.000000)" fill="#000000">
            <g id="intro-copy" transform="translate(144.000000, 912.000000)">
                <g id="ui/ux" transform="translate(651.000000, 0.000000)">
                    <g id="Group-5">
                        <g>
                            <g id="layout" transform="translate(0.000000, 6.000000)">
                                <g>
                                    <path d="M2.22222222,1.11111111 C1.6085725,1.11111111 1.11111111,1.6085725 1.11111111,2.22222222 L1.11111111,17.7777778 C1.11111111,18.3914275 1.6085725,18.8888889 2.22222222,18.8888889 L17.7777778,18.8888889 C18.3914275,18.8888889 18.8888889,18.3914275 18.8888889,17.7777778 L18.8888889,2.22222222 C18.8888889,1.6085725 18.3914275,1.11111111 17.7777778,1.11111111 L2.22222222,1.11111111 Z M2.22222222,-1.11111111 L17.7777778,-1.11111111 C19.6187269,-1.11111111 21.1111111,0.381273056 21.1111111,2.22222222 L21.1111111,17.7777778 C21.1111111,19.6187269 19.6187269,21.1111111 17.7777778,21.1111111 L2.22222222,21.1111111 C0.381273056,21.1111111 -1.11111111,19.6187269 -1.11111111,17.7777778 L-1.11111111,2.22222222 C-1.11111111,0.381273056 0.381273056,-1.11111111 2.22222222,-1.11111111 Z" id="Rectangle-path" fill-rule="nonzero"></path>
                                    <path d="M0,7.77777778 C-0.613649722,7.77777778 -1.11111111,7.28031639 -1.11111111,6.66666667 C-1.11111111,6.05301694 -0.613649722,5.55555556 0,5.55555556 L20,5.55555556 C20.6136497,5.55555556 21.1111111,6.05301694 21.1111111,6.66666667 C21.1111111,7.28031639 20.6136497,7.77777778 20,7.77777778 L0,7.77777778 Z" id="Shape" fill-rule="nonzero"></path>
                                    <path d="M7.77777778,20 C7.77777778,20.6136497 7.28031639,21.1111111 6.66666667,21.1111111 C6.05301694,21.1111111 5.55555556,20.6136497 5.55555556,20 L5.55555556,6.66666667 C5.55555556,6.05301694 6.05301694,5.55555556 6.66666667,5.55555556 C7.28031639,5.55555556 7.77777778,6.05301694 7.77777778,6.66666667 L7.77777778,20 Z" id="Shape" fill-rule="nonzero"></path>
                                </g>
                            </g>
                        </g>
                    </g>
                </g>
            </g>
        </g>
    </g>
</svg>