<?xml version="1.0" encoding="UTF-8"?>
<svg width="829px" height="1668px" viewBox="0 0 829 1668" version="1.1" xmlns="http://www.w3.org/2000/svg" xmlns:xlink="http://www.w3.org/1999/xlink">
    <!-- Generator: Sketch 51.3 (57544) - http://www.bohemiancoding.com/sketch -->
    <title>Group</title>
    <desc>Created with Sketch.</desc>
    <defs></defs>
    <g id="Page-1" stroke="none" stroke-width="1" fill="none" fill-rule="evenodd">
        <g id="Group" transform="translate(0.000000, 2.000000)">
            <path d="M122,0 L706,1.42108547e-14 C771.1696,-5.56428394e-14 824,52.8303995 824,118 L824,1546 C824,1611.1696 771.1696,1664 706,1664 L122,1664 C56.8303995,1664 4,1611.1696 4,1546 L4,118 C4,52.8303995 56.8303995,2.61823161e-14 122,1.42108547e-14 Z M127.230666,48.0018151 L127.230666,48 C127.230063,48 127.22946,48 127.228856,48 C87.3379606,48 55,80.4290732 55,120.432362 L55.00181,1541.56764 C55.00181,1581.57093 87.3397704,1614 127.230666,1614 L700.76935,1614 C740.660246,1614 772.998207,1581.57093 772.998207,1541.56764 L773,120.432362 C773,120.431763 773,120.431163 773,120.430564 C772.99901,80.4272751 740.660246,47.9990069 700.76935,48 L625.127091,48.0036814 C619.285613,48.0038268 614.487139,52.6306489 614.257884,58.4840718 L614.257901,58.4840726 C613.025472,89.9508758 599.244707,105.684277 572.915608,105.684277 C529.25707,105.684277 307.53376,106.854081 257.820969,105.665531 C227.966289,104.951756 212.689643,89.2841296 211.99103,58.6626525 C211.855838,52.736928 207.026917,48.0038062 201.116295,48.0036576 L127.230666,48.0018151 Z" id="Combined-Shape" fill="#FFFFFF" fill-rule="nonzero"></path>
            <g id="iPhone-X-Light" transform="translate(0.000000, 1.000000)">
                <path d="M122.165634,0.17305058 C58.1879533,0.17305058 6.32379543,52.0888446 6.32379543,116.130222 L6.32379543,1545.86363 C6.32379543,1609.90501 58.1879533,1661.8208 122.165634,1661.8208 L706.834365,1661.8208 C770.812047,1661.8208 822.676205,1609.90501 822.676205,1545.86363 L822.676205,116.130222 C822.676205,52.0888446 770.812047,0.17305058 706.834365,0.17305058 L122.165634,0.17305058 Z" id="Rectangle-3" stroke="#EA352C" stroke-width="5"></path>
                <path d="M127.830088,18.2115174 C69.8766692,18.2115174 22.8961407,65.23882 22.8961407,123.249938 L22.8961407,1536.56631 C22.8961407,1594.57743 69.8766692,1641.60473 127.830088,1641.60473 L698.115006,1641.60473 C756.068424,1641.60473 803.048953,1594.57743 803.048953,1536.56631 L803.048953,123.249938 C803.048953,65.23882 756.068424,18.2115174 698.115006,18.2115174 L127.830088,18.2115174 Z" id="Rectangle-3" stroke="#EA352C" stroke-width="5"></path>
                <path d="M126.890092,46.4207604 L200.979864,46.4226046 C206.906817,46.4227533 211.749081,51.1603297 211.884646,57.0916314 C212.585189,87.7419282 227.904044,103.4243 257.841212,104.138747 C307.691358,105.328416 530.027284,104.157511 573.806449,104.157511 C600.208295,104.157511 614.027136,88.4093019 615.26297,56.9128833 L615.262952,56.9128826 C615.49284,51.0539507 620.304572,46.422774 626.16219,46.4226284 L702.013448,46.4189436 C742.014561,46.4179495 774.442676,78.8767379 774.443669,118.917677 C774.443669,118.918276 774.443669,118.918876 774.443669,118.919476 L774.441871,1541.39227 C774.441871,1581.43321 742.014561,1613.8928 702.013448,1613.8928 L126.890092,1613.8928 C86.8889783,1613.8928 54.461669,1581.43321 54.461669,1541.39227 L54.459854,118.919476 C54.459854,78.8785378 86.8871635,46.4189435 126.888277,46.4189435 C126.888882,46.4189435 126.889487,46.4189435 126.890092,46.4189436 L126.890092,46.4207604 Z" id="path-1" stroke="#EA352C" stroke-width="5"></path>
                <path d="M4.36315789,493.522647 L5.23300595,493.522647 L5.23300595,615.407983 L4.36315789,615.407983 C1.95345233,615.407983 2.9510382e-16,613.452585 0,611.040481 L0,497.890149 C-2.9510382e-16,495.478046 1.95345233,493.522647 4.36315789,493.522647 Z" id="button-4" fill="#EA352C" fill-rule="nonzero"></path>
                <path d="M4.36315789,341.056188 L5.23300595,341.056188 L5.23300595,462.941524 L4.36315789,462.941524 C1.95345233,462.941524 2.9510382e-16,460.986125 0,458.574022 L0,345.42369 C-2.9510382e-16,343.011586 1.95345233,341.056188 4.36315789,341.056188 Z" id="button-3" fill="#EA352C" fill-rule="nonzero"></path>
                <path d="M4.36315789,221.79032 L5.23300595,221.79032 L5.23300595,286.014435 L4.36315789,286.014435 C1.95345233,286.014435 4.57560079e-15,284.059039 0,281.646934 L0,226.157822 C-2.9510382e-16,223.745719 1.95345233,221.79032 4.36315789,221.79032 Z" id="button-2" fill="#EA352C" fill-rule="nonzero"></path>
                <path d="M823.766994,381.684634 L824.636842,381.684634 C827.046547,381.684634 829,383.64003 829,386.052136 L829,571.285193 C829,573.697296 827.046547,575.652695 824.636842,575.652695 L823.766994,575.652695 L823.766994,381.684634 Z" id="button-1" fill="#EA352C" fill-rule="nonzero"></path>
                <rect id="speaker" stroke="#EA352C" stroke-width="5" x="365.658032" y="59.9326992" width="92.0125283" height="10.9221991" rx="2.50078864"></rect>
                <ellipse id="camera" stroke="#EA352C" stroke-width="5" cx="501.933648" cy="65.3937986" rx="13.0825149" ry="13.10595"></ellipse>
            </g>
        </g>
    </g>
</svg>