<?xml version="1.0" encoding="UTF-8"?>
<svg width="493px" height="497px" viewBox="0 0 493 497" version="1.1" xmlns="http://www.w3.org/2000/svg" xmlns:xlink="http://www.w3.org/1999/xlink">
    <!-- Generator: Sketch 51.3 (57544) - http://www.bohemiancoding.com/sketch -->
    <title>Group 12</title>
    <desc>Created with Sketch.</desc>
    <defs>
        <linearGradient x1="28.7167463%" y1="100%" x2="79.553376%" y2="15.2273011%" id="linearGradient-1">
            <stop stop-color="#F8634A" stop-opacity="0" offset="0%"></stop>
            <stop stop-color="#EA352C" stop-opacity="0.12" offset="100%"></stop>
        </linearGradient>
        <linearGradient x1="50%" y1="0%" x2="50%" y2="100%" id="linearGradient-2">
            <stop stop-color="#F8844A" offset="0%"></stop>
            <stop stop-color="#F64036" offset="100%"></stop>
        </linearGradient>
    </defs>
    <g id="all-pages-(desktop)" stroke="none" stroke-width="1" fill="none" fill-rule="evenodd">
        <g id="Kurate---desktop" transform="translate(-119.000000, -2579.000000)" fill-rule="nonzero">
            <g id="user-research" transform="translate(0.000000, 2420.000000)">
                <g id="Group-12" transform="translate(119.000000, 159.000000)">
                    <ellipse id="Path" fill="url(#linearGradient-1)" transform="translate(246.500000, 248.500000) rotate(-90.000000) translate(-246.500000, -248.500000) " cx="246.5" cy="248.5" rx="248.5" ry="246.5"></ellipse>
                    <g id="Group-4" transform="translate(25.000000, 60.000000)">
                        <g id="Group">
                            <rect id="Rectangle-5-Copy" fill="url(#linearGradient-2)" x="0" y="0" width="180" height="100" rx="4"></rect>
                            <g id="questions" transform="translate(89.000000, 17.000000)" fill="#FAFAFA">
                                <path d="M25.7770697,40.7600273 C27.5346148,39.078832 28.632209,36.715207 28.632209,34.0987969 L28.632209,29.0567578 C29.4306824,28.0086211 29.9060225,26.7021563 29.9060225,25.2865078 L29.9060225,20.0143711 C29.9060225,19.3024219 29.3280492,18.7253086 28.6150389,18.7253086 L17.9753975,18.7253086 C13.6579611,18.7253086 10.1453238,22.2325898 10.1453238,26.5437305 L10.1453238,34.0987969 C10.1453238,36.7150781 11.2430471,39.078832 13.0004631,40.7600273 C5.8036168,41.0151328 0.0274979508,46.9396641 0.0274979508,54.1869023 L0.0274979508,64.7109375 C0.0274979508,65.4228867 0.605471311,66 1.31848156,66 L37.4590512,66 C38.1720615,66 38.7500348,65.4228867 38.7500348,64.7109375 L38.7500348,54.1869023 C38.7500348,46.939793 32.973916,41.0152617 25.7770697,40.7600273 Z M17.9755266,21.3035625 L27.3241844,21.3035625 L27.3241844,25.2866367 C27.3241844,27.306082 25.6788258,28.9489922 23.6565,28.9489922 L12.7274201,28.9489922 L12.7275492,28.7792227 L12.7275492,26.5438594 L12.7274201,26.5438594 C12.7274201,23.6542969 15.0816578,21.3035625 17.9755266,21.3035625 Z M12.7274201,34.0989258 L12.7274201,31.5269883 L23.6563709,31.5269883 C24.5040307,31.5269883 25.3125738,31.356832 26.0502418,31.0501641 L26.0502418,34.0989258 C26.0502418,37.7666953 23.062002,40.7504883 19.3887664,40.7504883 C15.7155307,40.7504883 12.7274201,37.7666953 12.7274201,34.0989258 Z M24.625125,43.3286133 L19.5781537,51.8699414 L14.5311824,43.3286133 L24.625125,43.3286133 Z M36.1681967,63.421875 L33.2625799,63.421875 L33.2625799,54.4066875 C33.2625799,53.6947383 32.6846066,53.117625 31.9715963,53.117625 C31.2585861,53.117625 30.6806127,53.6947383 30.6806127,54.4066875 L30.6806127,63.421875 L8.47569467,63.421875 L8.47569467,54.4066875 C8.47569467,53.6947383 7.89772131,53.117625 7.18471107,53.117625 C6.47170082,53.117625 5.89372746,53.6947383 5.89372746,54.4066875 L5.89372746,63.421875 L2.60959426,63.421875 L2.60959426,54.1869023 C2.60959426,48.8313633 6.51378689,44.3721094 11.6286639,43.4900039 L18.4662295,55.0617891 C18.6983484,55.4546953 19.1212746,55.69575 19.5781537,55.69575 C20.0350328,55.69575 20.4578299,55.4545664 20.6900779,55.0617891 L27.4913668,43.55175 C32.4376414,44.5693359 36.1681967,48.951375 36.1681967,54.1870312 L36.1681967,63.421875 Z" id="Shape"></path>
                                <path d="M56.5174549,0 L49.2170717,0 C48.5040615,0 47.9260881,0.577113281 47.9260881,1.2890625 C47.9260881,2.00101172 48.5040615,2.578125 49.2170717,2.578125 L56.5174549,2.578125 C58.653,2.578125 60.3904057,4.31294531 60.3904057,6.4453125 L60.3904057,23.7152695 C60.3904057,25.8476367 58.653,27.582457 56.5174549,27.582457 L51.8111742,27.582457 C51.4689344,27.582457 51.1406373,27.7181953 50.8985779,27.9597656 L44.8001004,34.0462031 L44.8001004,28.8713906 C44.8001004,28.1594414 44.222127,27.5823281 43.5091168,27.5823281 L32.5051598,27.5823281 C31.7921496,27.5823281 31.2141762,28.1594414 31.2141762,28.8713906 C31.2141762,29.5833398 31.7921496,30.1604531 32.5051598,30.1604531 L42.2181332,30.1604531 L42.2181332,37.1570977 C42.2181332,37.6783945 42.5326168,38.1483867 43.0149283,38.3479336 C43.174752,38.4140625 43.3424508,38.4461602 43.5088586,38.4461602 C43.8447725,38.4461602 44.174877,38.3151914 44.4218422,38.0687227 L52.3458996,30.1603242 L56.517584,30.1603242 C60.0768258,30.1603242 62.972502,27.268957 62.972502,23.7150117 L62.972502,6.4453125 C62.972373,2.89136719 60.0768258,0 56.5174549,0 Z" id="Shape"></path>
                                <path d="M45.4240328,0.377695313 C45.1839098,0.137929688 44.8508361,0 44.5113074,0 C44.1717787,0 43.8387049,0.137929688 43.598582,0.377695313 C43.358459,0.617460937 43.2203238,0.950039063 43.2203238,1.2890625 C43.2203238,1.62808594 43.358459,1.96066406 43.598582,2.20042969 C43.8387049,2.44019531 44.1717787,2.578125 44.5113074,2.578125 C44.8508361,2.578125 45.1839098,2.44019531 45.4240328,2.20042969 C45.6641557,1.96066406 45.802291,1.62808594 45.802291,1.2890625 C45.802291,0.950039063 45.6641557,0.617460937 45.4240328,0.377695313 Z" id="Shape"></path>
                                <path d="M39.7927623,0 L32.5051598,0 C28.945918,0 26.0502418,2.89136719 26.0502418,6.4453125 L26.0502418,13.5966445 C26.0502418,14.3085938 26.6282152,14.885707 27.3412254,14.885707 C28.0542357,14.885707 28.632209,14.3085938 28.632209,13.5966445 L28.632209,6.4453125 C28.632209,4.31294531 30.3696148,2.578125 32.5051598,2.578125 L39.7927623,2.578125 C40.5057725,2.578125 41.0837459,2.00101172 41.0837459,1.2890625 C41.0837459,0.577113281 40.5057725,0 39.7927623,0 Z" id="Shape"></path>
                                <path d="M27.6468012,55.0540547 L25.8394242,55.0540547 C25.1264139,55.0540547 24.5484406,55.631168 24.5484406,56.3431172 C24.5484406,57.0550664 25.1264139,57.6321797 25.8394242,57.6321797 L27.6468012,57.6321797 C28.3598115,57.6321797 28.9377848,57.0550664 28.9377848,56.3431172 C28.9377848,55.631168 28.3598115,55.0540547 27.6468012,55.0540547 Z" id="Shape"></path>
                                <path d="M17.2457336,33.7180078 C17.0056107,33.4782422 16.6738279,33.3403125 16.3330082,33.3403125 C15.9934795,33.3403125 15.6604057,33.4782422 15.4202828,33.7180078 C15.1801598,33.9577734 15.0420246,34.2903516 15.0420246,34.629375 C15.0420246,34.9683984 15.1801598,35.3009766 15.4202828,35.5407422 C15.6604057,35.7805078 15.9934795,35.9184375 16.3330082,35.9184375 C16.6738279,35.9184375 17.0056107,35.7805078 17.2457336,35.5407422 C17.4871475,35.3009766 17.6239918,34.9683984 17.6239918,34.629375 C17.6239918,34.2903516 17.4871475,33.9577734 17.2457336,33.7180078 Z" id="Shape"></path>
                                <path d="M23.35725,33.7180078 C23.117127,33.4782422 22.7840533,33.3403125 22.4445246,33.3403125 C22.1037049,33.3403125 21.7719221,33.4782422 21.5317992,33.7180078 C21.2903852,33.9577734 21.153541,34.2890625 21.153541,34.629375 C21.153541,34.9683984 21.2903852,35.3009766 21.5317992,35.5407422 C21.7719221,35.7805078 22.1049959,35.9184375 22.4445246,35.9184375 C22.7840533,35.9184375 23.117127,35.7805078 23.35725,35.5407422 C23.597373,35.3009766 23.7355082,34.9683984 23.7355082,34.629375 C23.7355082,34.2903516 23.597373,33.9577734 23.35725,33.7180078 Z" id="Shape"></path>
                                <path d="M49.2780061,11.5363359 C49.115084,9.17683594 47.2102377,7.27495312 44.8472213,7.11227344 C43.5076967,7.01971875 42.2298811,7.47153516 41.2513156,8.38354687 C40.2865635,9.28279687 39.7331189,10.5543281 39.7331189,11.8718789 C39.7331189,12.5838281 40.3110922,13.1609414 41.0241025,13.1609414 C41.7371127,13.1609414 42.3150861,12.5838281 42.3150861,11.8718789 C42.3150861,11.2573828 42.5629549,10.6877461 43.01325,10.2681562 C43.4628996,9.84908203 44.0502971,9.6421875 44.6697111,9.68421094 C45.7536209,9.75884766 46.6274877,10.6312852 46.7022357,11.7137109 C46.7777582,12.8074805 46.0594549,13.7740195 44.9941352,14.0119805 C43.9497295,14.2454297 43.2203238,15.1518984 43.2203238,16.2165352 L43.2203238,18.8036836 C43.2203238,19.5156328 43.7982971,20.0927461 44.5113074,20.0927461 C45.2243176,20.0927461 45.802291,19.5156328 45.802291,18.8036836 L45.802291,16.4667422 C47.986377,15.8602383 49.4360225,13.8262266 49.2780061,11.5363359 Z" id="Shape"></path>
                                <path d="M45.4240328,22.15125 C45.1839098,21.9114844 44.8508361,21.7748437 44.5113074,21.7748437 C44.1717787,21.7748437 43.8387049,21.9114844 43.598582,22.15125 C43.358459,22.3923047 43.2203238,22.7235937 43.2203238,23.0639062 C43.2203238,23.4029297 43.358459,23.7355078 43.598582,23.9752734 C43.8387049,24.2150391 44.1717787,24.3529687 44.5113074,24.3529687 C44.8508361,24.3529687 45.1839098,24.2150391 45.4240328,23.9752734 C45.6641557,23.7355078 45.802291,23.4029297 45.802291,23.0639062 C45.802291,22.7235937 45.6641557,22.3923047 45.4240328,22.15125 Z" id="Shape"></path>
                            </g>
                        </g>
                        <g id="Group-2" transform="translate(0.000000, 138.000000)">
                            <rect id="Rectangle-5-Copy-2" fill="url(#linearGradient-2)" x="0" y="0" width="302" height="100" rx="4"></rect>
                            <g id="answers" transform="translate(212.000000, 17.000000)" fill="#FAFAFA">
                                <path d="M56.274873,52.5983906 C56.9501543,51.6207656 57.3496875,50.4210352 57.3496875,49.1248828 L57.3496875,41.3789062 C57.3496875,40.666957 56.7986836,40.0898438 56.1192188,40.0898438 L50.6200078,40.0898438 C48.0778594,40.0898438 46.0096875,42.2565 46.0096875,44.9197031 L46.0096875,49.1248828 C46.0096875,50.4202617 46.4087285,51.6190898 47.0831484,52.596457 C46.242,52.7394141 45.4327207,53.0217187 44.6779512,53.4349922 C42.9683379,50.7625078 40.1674219,48.9194062 36.9487617,48.6084844 C36.9362109,48.6047461 36.9234141,48.6020391 36.9107402,48.5988164 C38.0623359,47.2516172 38.7643184,45.4742578 38.7643184,43.5277734 L38.7643184,33 C38.7643184,32.2880508 38.2133145,31.7109375 37.5338496,31.7109375 L30.0597363,31.7109375 C26.8483359,31.7109375 24.2356816,34.4480039 24.2356816,37.8123281 L24.2356816,43.5276445 C24.2356816,45.4741289 24.9376641,47.2514883 26.0892598,48.5986875 C26.0765859,48.6019102 26.0637891,48.6047461 26.0512383,48.6083555 C22.832209,48.9192773 20.0311699,50.7626367 18.3216797,53.4355078 C17.5666641,53.0223633 16.7572617,52.7398008 15.9164824,52.5968438 C16.5910254,51.6194766 16.9903125,50.4203906 16.9903125,49.1248828 L16.9903125,41.3789062 C16.9903125,40.666957 16.4393086,40.0898438 15.7598437,40.0898438 L10.2606328,40.0898438 C7.71848438,40.0898438 5.6503125,42.2565 5.6503125,44.9197031 L5.6503125,49.1248828 C5.6503125,50.4211641 6.0498457,51.6207656 6.72512695,52.5983906 C2.91645703,53.2505273 0,56.7205547 0,60.8920898 L0,64.7109375 C0,65.4228867 0.551003906,66 1.23046875,66 L61.7695312,66 C62.4489961,66 63,65.4228867 63,64.7109375 L63,60.8920898 C63,56.7205547 60.083543,53.2505273 56.274873,52.5983906 Z M8.11125,44.9197031 C8.11125,43.6780781 9.07544531,42.6679688 10.2606328,42.6679688 L14.529375,42.6679688 L14.529375,44.237918 C14.529375,45.0077461 13.9316133,45.6339727 13.1969004,45.6339727 L8.11125,45.6339727 L8.11125,44.9197031 Z M8.11125,48.2119687 L13.1969004,48.2119687 C13.665709,48.2119687 14.114584,48.1218633 14.529375,47.9581523 L14.529375,49.1248828 C14.529375,50.9785547 13.0898496,52.4867578 11.3203125,52.4867578 C9.55077539,52.4867578 8.11125,50.9785547 8.11125,49.1248828 L8.11125,48.2119687 Z M12.1135957,55.0648828 L11.3203125,55.8959414 L10.5270293,55.0648828 L12.1135957,55.0648828 Z M16.5562031,59.5206562 L16.5562031,63.421875 L2.4609375,63.421875 L2.4609375,60.8920898 C2.4609375,58.0008516 4.48173633,55.5957188 7.1210918,55.1427422 L10.450248,58.6304297 C10.681084,58.8721289 10.9939922,59.0079961 11.3203125,59.0079961 C11.6466328,59.0079961 11.959541,58.8721289 12.190377,58.6304297 L15.5205176,55.141582 C16.1086816,55.2418711 16.6743281,55.4405156 17.2014609,55.7310703 C16.7845781,56.912625 16.5562031,58.1891836 16.5562031,59.5206562 Z M31.500123,48.5598867 C28.8515391,48.5598867 26.6967422,46.3024805 26.6967422,43.5277734 L26.6967422,41.8240195 L34.0505156,41.8240195 C34.8659473,41.8240195 35.6337598,41.6057813 36.3035039,41.2224141 L36.3035039,43.5277734 C36.3035039,46.3024805 34.148707,48.5598867 31.500123,48.5598867 Z M33.6449531,51.1378828 L31.5,53.3849766 L29.3550469,51.1378828 L33.6449531,51.1378828 Z M26.6964961,37.8123281 L26.6966191,37.8123281 C26.6966191,35.869582 28.2052969,34.2890625 30.0597363,34.2890625 L36.3033809,34.2890625 L36.3033809,36.88575 C36.3033809,38.1871875 35.2926738,39.2460234 34.0503926,39.2460234 L26.6964961,39.2460234 L26.6964961,37.8123281 Z M43.9827363,63.421875 L41.5898438,63.421875 L21.4101562,63.421875 L19.0172637,63.421875 L19.0172637,60.84375 L27.0293379,60.84375 C27.7088027,60.84375 28.2598066,60.2666367 28.2598066,59.5546875 C28.2598066,58.8427383 27.7088027,58.265625 27.0293379,58.265625 L19.1072109,58.265625 C19.6345898,54.6019805 22.4339062,51.7099688 25.9484941,51.2150977 L30.6299355,56.1194648 C30.8702461,56.3712187 31.185123,56.4970312 31.5,56.4970312 C31.814877,56.4970312 32.1297539,56.3712187 32.3700645,56.1194648 L37.0515059,51.2150977 C40.9589824,51.7652695 43.9827363,55.2788672 43.9827363,59.5206563 L43.9827363,63.421875 Z M48.470625,44.9197031 C48.470625,43.6780781 49.4348203,42.6679688 50.6200078,42.6679688 L54.88875,42.6679688 L54.88875,44.237918 C54.88875,45.0077461 54.2909883,45.6339727 53.5562754,45.6339727 L48.470625,45.6339727 L48.470625,44.9197031 Z M48.470625,48.2119687 L53.5562754,48.2119687 C54.025084,48.2119687 54.473959,48.1218633 54.88875,47.9581523 L54.88875,49.1248828 C54.88875,50.9785547 53.4492246,52.4867578 51.6796875,52.4867578 C49.9101504,52.4867578 48.470625,50.9785547 48.470625,49.1248828 L48.470625,48.2119687 Z M52.4729707,55.0648828 L51.6796875,55.8959414 L50.8864043,55.0648828 L52.4729707,55.0648828 Z M46.4436738,63.421875 L46.4436738,59.5206562 C46.4436738,58.1890547 46.2152988,56.9124961 45.798293,55.7308125 C46.3251797,55.44 46.8907031,55.2414844 47.4789902,55.1413242 L50.8095,58.6304297 C51.0403359,58.8721289 51.3532441,59.0079961 51.6795645,59.0079961 C52.0058848,59.0079961 52.318793,58.8721289 52.5496289,58.6304297 L55.8787852,55.1427422 C58.5181406,55.5958477 60.5389395,58.0008516 60.5389395,60.8920898 L60.5389395,63.421875 L46.4436738,63.421875 Z" id="Shape"></path>
                                <path d="M37.5642422,8.42247656 C37.0836211,7.91909766 36.3047344,7.91909766 35.8239902,8.42247656 L29.7860801,14.7480352 L27.1758867,12.0135469 C26.6952656,11.5100391 25.9163789,11.5100391 25.4357578,12.013418 C24.9552598,12.5167969 24.9552598,13.3330313 25.4357578,13.8365391 L28.9160156,17.4825234 C29.1468516,17.7242227 29.4597598,17.8600898 29.7860801,17.8600898 C30.1124004,17.8600898 30.4253086,17.7242227 30.6561445,17.4825234 L37.5642422,10.2454688 C38.0447402,9.74208984 38.0447402,8.92585547 37.5642422,8.42247656 Z" id="Shape"></path>
                                <path d="M36.5311406,1.117875 C35.9106152,0.827964844 35.1830391,1.1199375 34.9061836,1.77014062 C34.6293281,2.42034375 34.9081523,3.18256641 35.5288008,3.47247656 C39.0970371,5.13962109 41.4026895,8.86075781 41.4026895,12.9525 C41.4026895,18.6728438 36.9603281,23.3267461 31.5,23.3267461 C26.0396719,23.3267461 21.5973105,18.6728438 21.5973105,12.9525 C21.5973105,8.88189844 23.8863516,5.16849609 27.4288711,3.49232812 C28.048166,3.19932422 28.3235449,2.43568359 28.0437363,1.78689844 C27.7640508,1.13798437 27.034752,0.849621094 26.4159492,1.142625 C21.9938906,3.23503125 19.1364961,7.87062891 19.1364961,12.9523711 C19.136373,20.0944219 24.6827109,25.9048711 31.5,25.9048711 C38.3172891,25.9048711 43.863627,20.0944219 43.863627,12.9525 C43.863627,7.84433203 40.9854375,3.1989375 36.5311406,1.117875 Z" id="Shape"></path>
                                <path d="M31.5440508,0 L31.5,0 C30.8205352,0 30.2695312,0.577113281 30.2695312,1.2890625 C30.2695312,2.00101172 30.8205352,2.578125 31.5,2.578125 L31.5324844,2.578125 C31.5344531,2.578125 31.5362988,2.578125 31.5383906,2.578125 C32.2152715,2.578125 32.7655371,2.00500781 32.7687363,1.29512109 C32.7719355,0.583171875 32.2236387,0.0033515625 31.5440508,0 Z" id="Shape"></path>
                                <path d="M32.3698184,58.6433203 C32.1410742,58.4035547 31.8236133,58.265625 31.5,58.265625 C31.1763867,58.265625 30.8589258,58.4035547 30.6300586,58.6433203 C30.4011914,58.8830859 30.2695312,59.2156641 30.2695312,59.5546875 C30.2695312,59.8937109 30.4010684,60.2262891 30.6300586,60.4660547 C30.8590488,60.7058203 31.1763867,60.84375 31.5,60.84375 C31.8236133,60.84375 32.1410742,60.7058203 32.3698184,60.4660547 C32.5986855,60.2262891 32.7304688,59.8937109 32.7304688,59.5546875 C32.7304688,59.2156641 32.5988086,58.8830859 32.3698184,58.6433203 Z" id="Shape"></path>
                            </g>
                        </g>
                        <g id="Group-3" transform="translate(0.000000, 276.000000)">
                            <rect id="Rectangle-5" fill="url(#linearGradient-2)" x="0" y="0" width="440" height="100" rx="4"></rect>
                            <g id="knowledge" transform="translate(358.000000, 17.000000)" fill="#FAFAFA">
                                <path d="M39.9082537,45.3510234 C39.7274182,45.2972695 39.5372958,45.2852813 39.3516878,45.3124805 C39.3300185,45.3114492 39.3082202,45.3109336 39.2865509,45.3100313 C40.9608921,43.6752422 42.0030828,41.3963086 42.0030828,38.8777383 L42.0030828,26.0390625 C42.0030828,25.3272422 41.4254924,24.75 40.7132428,24.75 L31.1587535,24.75 C27.2096506,24.75 23.9967883,27.9609258 23.9967883,31.9076484 L23.9967883,38.8776094 C23.9967883,41.3961797 25.0389789,43.6751133 26.7133201,45.3099023 C26.6916508,45.3108047 26.6698525,45.3113203 26.6481832,45.3123516 C26.4627042,45.2852813 26.2724529,45.2971406 26.0916173,45.3508945 C19.4236608,45.9491484 14.1796875,51.5641758 14.1796875,58.3812539 L14.1796875,64.7109375 C14.1796875,65.4227578 14.7572778,66 15.4695274,66 L50.5304726,66 C51.2427222,66 51.8203125,65.4227578 51.8203125,64.7109375 L51.8203125,58.3813828 C51.8200545,51.5644336 46.5762103,45.9492773 39.9082537,45.3510234 Z M26.5762102,33.7132383 L26.5762102,31.9076484 C26.5762102,29.3825039 28.6319571,27.328125 31.1584955,27.328125 L39.4231449,27.328125 L39.4231449,30.7777852 C39.4231449,32.5208555 38.004192,33.9389531 36.2600704,33.9389531 L26.5762102,33.9389531 L26.5762102,33.7132383 Z M26.5762102,38.8777383 L26.5762102,36.5170781 L36.2600704,36.5170781 C37.4282785,36.5170781 38.5153556,36.1658086 39.4231449,35.5647187 L39.4231449,38.8776094 C39.4231449,42.417375 36.5415135,45.2972695 32.999613,45.2972695 C29.4577126,45.2972695 26.5762102,42.4175039 26.5762102,38.8777383 Z M36.4252989,47.8753945 L32.999742,51.2988867 L29.5741851,47.8753945 L36.4252989,47.8753945 Z M49.2403747,63.421875 L16.7591094,63.421875 L16.7591094,59.7119531 L27.2847192,59.7119531 C27.9969688,59.7119531 28.5745592,59.1347109 28.5745592,58.4228906 C28.5745592,57.7110703 27.9969688,57.1338281 27.2847192,57.1338281 L16.8358549,57.1338281 C17.4059641,52.3427695 21.2134426,48.5324297 26.00494,47.9544141 L32.0876962,54.0335039 C32.339602,54.2851289 32.669672,54.4110703 32.999742,54.4110703 C33.3298121,54.4110703 33.6598821,54.2851289 33.9117879,54.0335039 L39.994544,47.9544141 C45.1955656,48.5818008 49.2403747,53.0170781 49.2403747,58.3813828 L49.2403747,63.421875 Z" id="Shape"></path>
                                <path d="M30.9465234,38.6628516 C30.7067578,38.4230859 30.3754687,38.2851562 30.0351562,38.2851562 C29.6961328,38.2851562 29.3635547,38.4230859 29.1237891,38.6628516 C28.8840234,38.9026172 28.7460938,39.2351953 28.7460938,39.5742188 C28.7460938,39.9132422 28.8840234,40.2458203 29.1237891,40.4855859 C29.3635547,40.7253516 29.6961328,40.8632812 30.0351562,40.8632812 C30.3754687,40.8632812 30.7067578,40.7253516 30.9465234,40.4855859 C31.1875781,40.2458203 31.3242188,39.9132422 31.3242188,39.5742188 C31.3242188,39.2351953 31.1875781,38.9026172 30.9465234,38.6628516 Z" id="Shape"></path>
                                <path d="M37.0051172,38.6628516 C36.7653516,38.4230859 36.4327734,38.2851562 36.09375,38.2851562 C35.7534375,38.2851562 35.4221484,38.4230859 35.1823828,38.6628516 C34.9413281,38.9026172 34.8046875,39.2339063 34.8046875,39.5742188 C34.8046875,39.9132422 34.9413281,40.2458203 35.1823828,40.4855859 C35.4221484,40.7253516 35.7547266,40.8632812 36.09375,40.8632812 C36.4327734,40.8632812 36.7653516,40.7253516 37.0051172,40.4855859 C37.2448828,40.2458203 37.3828125,39.9132422 37.3828125,39.5742188 C37.3828125,39.2351953 37.2448828,38.9026172 37.0051172,38.6628516 Z" id="Shape"></path>
                                <path d="M33.9112383,50.5222266 C33.6716016,50.2824609 33.3390234,50.1445312 33,50.1445312 C32.6609766,50.1445312 32.3283984,50.2824609 32.0886328,50.5222266 C31.8488672,50.7619922 31.7109375,51.0945703 31.7109375,51.4335938 C31.7109375,51.7726172 31.8487383,52.1051953 32.0886328,52.3449609 C32.3283984,52.5845977 32.6609766,52.7226562 33,52.7226562 C33.3390234,52.7226562 33.6716016,52.5847266 33.9112383,52.3449609 C34.1510039,52.1051953 34.2890625,51.7726172 34.2890625,51.4335938 C34.2890625,51.0945703 34.1511328,50.7619922 33.9112383,50.5222266 Z" id="Shape"></path>
                                <path d="M33,6.9609375 C30.2990273,6.9609375 28.1015625,9.15683097 28.1015625,11.8558722 C28.1015625,14.1090879 29.6334844,16.0105124 31.7109375,16.577552 L31.7109375,19.723578 C31.7109375,20.4348893 32.2881797,21.0117188 33,21.0117188 C33.7118203,21.0117188 34.2890625,20.4348893 34.2890625,19.723578 L34.2890625,16.577552 C36.3665156,16.0105124 37.8984375,14.1090879 37.8984375,11.8558722 C37.8984375,9.15683097 35.7009727,6.9609375 33,6.9609375 Z M25.703698,11.4726562 L22.557672,11.4726562 C21.8463607,11.4726562 21.2695312,12.0498984 21.2695312,12.7617188 C21.2695312,13.4735391 21.8463607,14.0507812 22.557672,14.0507812 L25.703698,14.0507812 L25.703698,11.4726562 Z M40.296302,11.4726562 L43.442328,11.4726562 C44.1536393,11.4726562 44.7304688,12.0498984 44.7304688,12.7617188 C44.7304688,13.4735391 44.1536393,14.0507812 43.442328,14.0507812 L40.296302,14.0507812 L40.296302,11.4726562 Z M31.7109375,4.56307302 L31.7109375,1.41704696 C31.7109375,0.70573566 32.2881797,0.12890625 33,0.12890625 C33.7118203,0.12890625 34.2890625,0.70573566 34.2890625,1.41704696 L34.2890625,4.56307302 L31.7109375,4.56307302 Z M26.3385544,7.92328281 L24.113978,5.69870645 C23.611005,5.19573341 23.6112969,4.37968156 24.1146298,3.87634859 C24.6179628,3.37301562 25.4340147,3.37272374 25.9369877,3.87569678 L28.1615641,6.10027314 L26.3385544,7.92328281 Z M39.7214472,7.92328281 L41.9460235,5.69870645 C42.4489966,5.19573341 42.4487047,4.37968156 41.9453717,3.87634859 C41.4420388,3.37301562 40.6259869,3.37272374 40.1230139,3.87569678 L37.8984375,6.10027314 L39.7214472,7.92328281 Z M33,14.1745255 C31.7206055,14.1745255 30.6796875,13.1343519 30.6796875,11.8558722 C30.6796875,10.5773925 31.7206055,9.53721892 33,9.53721892 C34.2793945,9.53721892 35.3203125,10.5773925 35.3203125,11.8558722 C35.3203125,13.1343519 34.2793945,14.1745255 33,14.1745255 Z" id="Shape"></path>
                            </g>
                        </g>
                    </g>
                </g>
            </g>
        </g>
    </g>
</svg>