<?xml version="1.0" encoding="UTF-8"?>
<svg width="478px" height="407px" viewBox="0 0 478 407" version="1.1" xmlns="http://www.w3.org/2000/svg" xmlns:xlink="http://www.w3.org/1999/xlink">
    <!-- Generator: Sketch 52 (66869) - http://www.bohemiancoding.com/sketch -->
    <title>kurate graphic</title>
    <desc>Created with Sketch.</desc>
    <defs>
        <linearGradient x1="28.7167463%" y1="100%" x2="79.553376%" y2="15.2273011%" id="linearGradient-1">
            <stop stop-color="#F8634A" stop-opacity="0" offset="0%"></stop>
            <stop stop-color="#EA352C" stop-opacity="0.12" offset="100%"></stop>
        </linearGradient>
        <linearGradient x1="50%" y1="0%" x2="50%" y2="100%" id="linearGradient-2">
            <stop stop-color="#F8844A" offset="0%"></stop>
            <stop stop-color="#F64036" offset="100%"></stop>
        </linearGradient>
    </defs>
    <g id="all-pages-(desktop)" stroke="none" stroke-width="1" fill="none" fill-rule="evenodd">
        <g id="Kurate---desktop" transform="translate(-163.000000, -2624.000000)">
            <g id="user-research" transform="translate(0.000000, 2420.000000)">
                <g id="kurate-graphic" transform="translate(163.000000, 204.000000)">
                    <ellipse id="bg" fill="url(#linearGradient-1)" fill-rule="nonzero" transform="translate(202.000000, 203.500000) rotate(-90.000000) translate(-202.000000, -203.500000) " cx="202" cy="203.5" rx="203" ry="201.5"></ellipse>
                    <g id="Group-3" transform="translate(22.000000, 274.355800)">
                        <rect id="bg" fill="url(#linearGradient-2)" fill-rule="nonzero" x="0" y="0" width="359" height="81.650652" rx="4"></rect>
                        <g id="idea" transform="translate(375.000000, 1.000000)">
                            <path d="M59.81,77.8 C54.25,65.51 43,57.85 30.47,57.85 C17.94,57.85 6.68,65.51 1.13,77.8 C0.821435369,78.4688462 1.06736408,79.2627214 1.7,79.64 C1.86827288,79.7331134 2.05768748,79.781328 2.25,79.78 L58.69,79.78 C58.8816425,79.7761206 59.0698258,79.7282194 59.24,79.64 C59.8688018,79.2597137 60.1137017,78.4691597 59.81,77.8 Z M4.33,77.05 C9.73,66.84 19.57,60.59 30.47,60.59 C41.37,60.59 51.21,66.84 56.6,77.05 L4.33,77.05 Z" id="Shape" fill="#EA352C" fill-rule="nonzero"></path>
                            <path d="M30.4,24.79 C22.1564256,24.8176169 15.4908876,31.5129952 15.5000932,39.7566108 C15.5092989,48.0002263 22.1897737,54.6807011 30.4333892,54.6899068 C38.6770048,54.6991124 45.3723831,48.0335744 45.4,39.79 C45.4,35.8117527 43.8196474,31.996444 41.0066017,29.1833983 C38.193556,26.3703526 34.3782473,24.79 30.4,24.79 Z M42.67,37.61 C38.6112661,36.3603967 35.7844702,32.6835574 35.62,28.44 C39.3268557,30.1615056 41.9590418,33.5852144 42.67,37.61 Z M30.4,27.29 C31.3045055,27.2892915 32.2064288,27.3865249 33.09,27.58 C33.0999788,27.7531897 33.0999788,27.9268103 33.09,28.1 C33.0896909,31.6284672 31.2188509,34.8923117 28.1743234,36.6758288 C25.1297959,38.4593459 21.3679561,38.4951862 18.29,36.77 C19.6655224,31.2006378 24.6632889,27.2882656 30.4,27.29 Z M30.4,52.19 C23.5458745,52.1569963 18.0054215,46.5942028 18,39.74 C18,39.62 18,39.51 18,39.39 C19.6308678,40.1520938 21.4098627,40.5447703 23.21,40.54 C27.9717195,40.5385663 32.3155526,37.8212444 34.4,33.54 C36.0573021,36.9473081 39.1738782,39.416284 42.87,40.25 C42.6010856,46.9360476 37.0914187,52.2115427 30.4,52.19 Z" id="Shape" fill="#EA352C" fill-rule="nonzero"></path>
                            <g id="idea-2" transform="translate(41.000000, 0.000000)">
                                <g id="idea-3" fill="#000000">
                                    <path d="M20.36,5.25 C20.0231063,5.25 19.75,4.9768937 19.75,4.64 L19.75,0.64 C19.7582843,0.294822052 20.044822,0.0217157794 20.39,0.0300000502 C20.7351779,0.0382843209 21.0082842,0.32482205 21,0.67 L21,4.67 C20.9922363,4.83185161 20.9203953,4.98396363 20.8003274,5.09277509 C20.6802596,5.20158656 20.5218324,5.25815517 20.36,5.25 Z" id="Path"></path>
                                    <path d="M31.14,9.54 C30.9122598,9.52221379 30.7135434,9.37867539 30.6250865,9.16806367 C30.5366296,8.95745194 30.5732588,8.71506839 30.72,8.54 L33.57,5.73 C33.8079112,5.49355487 34.1920888,5.49355487 34.43,5.73 C34.5460728,5.84295494 34.6115505,5.9980379 34.6115505,6.16 C34.6115505,6.3219621 34.5460728,6.47704506 34.43,6.59 L31.57,9.37 C31.4557665,9.48281121 31.3004931,9.54419836 31.14,9.54 Z" id="Path"></path>
                                    <path d="M39.16,19.91 L35.16,19.91 C34.9252829,19.9402387 34.694257,19.8319887 34.567286,19.6322767 C34.440315,19.4325647 34.440315,19.1774353 34.567286,18.9777233 C34.694257,18.7780113 34.9252829,18.6697613 35.16,18.7 L39.16,18.7 C39.3947171,18.6697613 39.625743,18.7780113 39.752714,18.9777233 C39.879685,19.1774353 39.879685,19.4325647 39.752714,19.6322767 C39.625743,19.8319887 39.3947171,19.9402387 39.16,19.91 Z" id="Path"></path>
                                    <path d="M9.26,9.54 C9.09971109,9.54305632 8.94486546,9.48183828 8.83,9.37 L6,6.55 C5.84637578,6.39816213 5.78542569,6.1759006 5.84010904,5.96693919 C5.89479239,5.75797777 6.05680149,5.59406269 6.26510906,5.53693917 C6.47341663,5.47981564 6.6963758,5.5381621 6.85,5.69 L9.69,8.5 C9.83748502,8.67646389 9.87318589,8.92087828 9.78233695,9.13215489 C9.69148801,9.34343149 9.48953328,9.48565398 9.26,9.5 L9.26,9.54 Z" id="Path"></path>
                                    <path d="M1.24,19.91 C0.935753053,19.8708038 0.707942286,19.6117614 0.707942286,19.305 C0.707942286,18.9982386 0.935753053,18.7391962 1.24,18.7 L5.24,18.7 C5.47471714,18.6697613 5.70574305,18.7780113 5.83271404,18.9777233 C5.95968503,19.1774353 5.95968503,19.4325647 5.83271404,19.6322767 C5.70574305,19.8319887 5.47471714,19.9402387 5.24,19.91 L1.24,19.91 Z" id="Path"></path>
                                </g>
                                <path d="M20.36,7 C14.9307509,6.95175923 10.1841957,10.6511061 8.90501399,15.9277307 C7.62583227,21.2043553 10.1513864,26.6666377 15,29.11 L15,34.29 C15,37.2336777 17.3863223,39.62 20.33,39.62 C23.2736777,39.62 25.66,37.2336777 25.66,34.29 L25.66,29.12 C30.5099402,26.6872133 33.0458697,21.2348569 31.7815968,15.9583064 C30.5173238,10.6817558 25.7858191,6.9706925 20.36,7 Z M23.17,34.25 C23.17,35.8129658 21.9029658,37.08 20.34,37.08 C18.7770342,37.08 17.51,35.8129658 17.51,34.25 L23.17,34.25 Z M23.93,27.13 C23.4690983,27.3263916 23.1699826,27.779001 23.17,28.28 L23.17,31.73 L17.51,31.73 L17.51,28.63 C17.6618768,28.029699 17.3513669,27.4086792 16.78,27.17 C12.757831,25.4693759 10.490396,21.1707228 11.3580039,16.8908604 C12.2256117,12.610998 15.9880828,9.53471911 20.355,9.53471911 C24.7219172,9.53471911 28.4843883,12.610998 29.3519961,16.8908604 C30.219604,21.1707228 27.952169,25.4693759 23.93,27.17 L23.93,27.13 Z" id="Shape" fill="#EA352C" fill-rule="nonzero"></path>
                                <path d="M26.55,19.48 C25.8933166,19.4817042 25.3472792,18.9749814 25.3,18.32 C25.1204421,16.0953704 23.4882357,14.2591382 21.3,13.82 C20.8605633,13.7342563 20.5002508,13.4205891 20.3547887,12.9971539 C20.2093266,12.5737187 20.3008141,12.1048453 20.5947887,11.7671539 C20.8887633,11.4294624 21.3405633,11.2742562 21.78,11.36 C25.0743819,12.0114607 27.5291065,14.7812083 27.78,18.13 C27.8075573,18.4607206 27.7013955,18.7886864 27.4852647,19.0405257 C27.269134,19.292365 26.9610729,19.447059 26.63,19.47 L26.55,19.48 Z" id="Path" fill="#EA352C"></path>
                                <path d="M20.34,5.24 C19.6535305,5.24002197 19.0954918,4.68644751 19.09,4 L19.09,1.25 C19.09,0.559644063 19.6496441,1.26816328e-16 20.34,0 C21.0303559,-1.26816328e-16 21.59,0.559644063 21.59,1.25 L21.59,4 C21.5845082,4.68644751 21.0264695,5.24002197 20.34,5.24 Z" id="Path" fill="#EA352C"></path>
                                <path d="M31.6,9.75 C31.0971302,9.74137995 30.6475526,9.434533 30.4562756,8.96938201 C30.2649985,8.50423103 30.3686639,7.9698823 30.72,7.61 L32.66,5.68 C33.1531836,5.23655428 33.9068439,5.2554828 34.377145,5.72312687 C34.8474462,6.19077094 34.8706444,6.94431193 34.43,7.44 L32.49,9.38 C32.2522826,9.61369357 31.9333294,9.7462921 31.6,9.75 Z" id="Path" fill="#EA352C"></path>
                                <path d="M38.53,20.55 L35.79,20.55 C35.0996441,20.55 34.54,19.9903559 34.54,19.3 C34.54,18.6096441 35.0996441,18.05 35.79,18.05 L38.53,18.05 C39.2203559,18.05 39.78,18.6096441 39.78,19.3 C39.78,19.9903559 39.2203559,20.55 38.53,20.55 Z" id="Path" fill="#EA352C"></path>
                                <path d="M8.8,9.75 C8.46926881,9.7479431 8.15283287,9.61489617 7.92,9.38 L6,7.44 C5.65551399,7.1302556 5.51058401,6.65539237 5.62340224,6.20607705 C5.73622048,5.75676174 6.08828324,5.40668803 6.53823054,5.29641728 C6.98817783,5.18614653 7.46221232,5.3337646 7.77,5.68 L9.71,7.61 C9.94510425,7.84451066 10.0772345,8.16293185 10.0772345,8.495 C10.0772345,8.82706815 9.94510425,9.14548934 9.71,9.38 C9.46733521,9.61852183 9.14025959,9.75150862 8.8,9.75 Z" id="Path" fill="#EA352C"></path>
                                <path d="M4.62,20.55 L1.88,20.55 C1.18964406,20.55 0.63,19.9903559 0.63,19.3 C0.63,18.6096441 1.18964406,18.05 1.88,18.05 L4.62,18.05 C5.31035594,18.05 5.87,18.6096441 5.87,19.3 C5.87,19.9903559 5.31035594,20.55 4.62,20.55 Z" id="Path" fill="#EA352C"></path>
                            </g>
                        </g>
                    </g>
                    <g id="Group-5" transform="translate(22.000000, 161.000000)">
                        <rect id="bg" fill="url(#linearGradient-2)" fill-rule="nonzero" x="-3.69482223e-13" y="0.677899794" width="246.404545" height="81.650652" rx="4"></rect>
                        <g id="feedback" transform="translate(263.000000, 12.000000)">
                            <path d="M63.43,39.08 C60.0761009,39.0759543 57.0501984,41.0931808 55.7639125,44.1906191 C54.4776266,47.2880574 55.1844134,50.8553731 57.5545482,53.2283705 C59.924683,55.6013678 63.4911431,56.3124597 66.5901316,55.0299134 C69.6891202,53.747367 71.7099976,50.7239015 71.71,47.37 C71.7045045,42.7977395 68.0022505,39.0910142 63.43,39.08 Z M68.86,45.41 C67.4189586,45.078895 66.3758171,43.8271252 66.31,42.35 C67.4951457,43.03632 68.398646,44.1205203 68.86,45.41 Z M63.43,41.58 C63.5364208,41.5697569 63.6435792,41.5697569 63.75,41.58 C63.4552642,43.7178444 61.6280658,45.3102393 59.47,45.31 C59.0037942,45.3091735 58.5409163,45.231464 58.1,45.08 C59.0184657,42.9537602 61.1138674,41.5777929 63.43,41.58 Z M63.43,53.16 C60.3180379,53.1620546 57.7630637,50.6999082 57.65,47.59 C58.2433628,47.7502382 58.8553824,47.8309441 59.47,47.83 C61.5110485,47.8316837 63.4452382,46.9178066 64.74,45.34 C65.712411,46.8826651 67.3610463,47.8703611 69.18,48 C68.8544903,50.9320022 66.3800066,53.1525825 63.43,53.16 Z" id="Shape" fill="#EA352C" fill-rule="nonzero"></path>
                            <path d="M39.91,39.08 C36.5561009,39.0759543 33.5301984,41.0931808 32.2439125,44.1906191 C30.9576266,47.2880574 31.6644134,50.8553731 34.0345482,53.2283705 C36.404683,55.6013678 39.9711431,56.3124597 43.0701316,55.0299134 C46.1691202,53.747367 48.1899976,50.7239015 48.19,47.37 C48.1845045,42.7977395 44.4822505,39.0910142 39.91,39.08 Z M45.34,45.41 C43.8989586,45.078895 42.8558171,43.8271252 42.79,42.35 C43.9751457,43.03632 44.878646,44.1205203 45.34,45.41 Z M39.91,41.58 C40.0164208,41.5697569 40.1235792,41.5697569 40.23,41.58 C39.9470287,43.7070751 38.1456578,45.3040352 36,45.33 C35.5337942,45.3291735 35.0709163,45.251464 34.63,45.1 C35.5351501,42.982528 37.6072758,41.6011109 39.91,41.58 Z M39.91,53.16 C36.7980379,53.1620546 34.2430637,50.6999082 34.13,47.59 C34.7233628,47.7502382 35.3353824,47.8309441 35.95,47.83 C37.9910485,47.8316837 39.9252382,46.9178066 41.22,45.34 C42.192411,46.8826651 43.8410463,47.8703611 45.66,48 C45.3344903,50.9320022 42.8600066,53.1525825 39.91,53.16 Z" id="Shape" fill="#EA352C" fill-rule="nonzero"></path>
                            <path d="M16.46,39.08 C13.1061009,39.0759543 10.0801984,41.0931808 8.79391251,44.1906191 C7.50762662,47.2880574 8.21441336,50.8553731 10.5845482,53.2283705 C12.954683,55.6013678 16.5211431,56.3124597 19.6201316,55.0299134 C22.7191202,53.747367 24.7399976,50.7239015 24.74,47.37 C24.7345045,42.7977395 21.0322505,39.0910142 16.46,39.08 Z M21.89,45.41 C20.4489586,45.078895 19.4058171,43.8271252 19.34,42.35 C20.5251457,43.03632 21.428646,44.1205203 21.89,45.41 Z M16.46,41.58 C16.5664208,41.5697569 16.6735792,41.5697569 16.78,41.58 C16.4852642,43.7178444 14.6580658,45.3102393 12.5,45.31 C12.0337942,45.3091735 11.5709163,45.231464 11.13,45.08 C12.0484657,42.9537602 14.1438674,41.5777929 16.46,41.58 Z M16.46,53.16 C13.3480379,53.1620546 10.7930637,50.6999082 10.68,47.59 C11.2733628,47.7502382 11.8853824,47.8309441 12.5,47.83 C14.5410485,47.8316837 16.4752382,46.9178066 17.77,45.34 C18.742411,46.8826651 20.3910463,47.8703611 22.21,48 C21.8844903,50.9320022 19.4100066,53.1525825 16.46,53.16 Z" id="Shape" fill="#EA352C" fill-rule="nonzero"></path>
                            <path d="M79.88,68.34 C79.8843361,68.320235 79.8843361,68.299765 79.88,68.28 C77.210565,61.5921876 70.6796267,57.2554852 63.48,57.39 C59.1728007,57.3759493 55.0022377,58.9009 51.72,61.69 C44.927567,55.9894212 35.022433,55.9894212 28.23,61.69 C24.9547358,58.9035717 20.7901401,57.3817561 16.49,57.4 C9.29400028,57.2696819 2.768138,61.6056575 0.1,68.29 C0.0956639244,68.309765 0.0956639244,68.330235 0.1,68.35 C0.0476482805,68.4873439 0.0205461651,68.6330178 0.02,68.78 C0.0360236722,69.4509147 0.578976829,69.9894536 1.25,70 L78.71,70 C79.0449532,70.0107642 79.3702007,69.8865792 79.612744,69.6553169 C79.8552874,69.4240546 79.9948109,69.1050859 80,68.77 C79.9867884,68.6205059 79.9461075,68.4747325 79.88,68.34 Z M16.49,59.9 C20.1137007,59.880936 23.6299851,61.1296768 26.43,63.43 C25.3695512,64.6578234 24.5028883,66.0404374 23.86,67.53 L3.18,67.53 C5.88200389,62.7385352 10.9899151,59.8104088 16.49,59.9 Z M23.49,68.35 C23.49,68.35 23.49,68.35 23.49,68.29 C23.4856639,68.309765 23.4856639,68.330235 23.49,68.35 Z M26.6,67.53 C29.3071532,62.7289631 34.4292381,59.7993148 39.94,59.9 C45.4436446,59.8067142 50.5562781,62.7353474 53.26,67.53 L26.6,67.53 Z M55.47,70 C55.626893,69.9636231 55.7759432,69.8992606 55.91,69.81 C55.7781586,69.9032719 55.6282937,69.9679862 55.47,70 Z M56.36,68.36 C56.3643361,68.340235 56.3643361,68.319765 56.36,68.3 C56.36,68.3 56.36,68.3 56.36,68.36 Z M56,67.52 C55.36878,66.043251 54.5118876,64.6735727 53.46,63.46 C56.270781,61.1327915 59.8108978,59.8689698 63.46,59.89 C68.9636446,59.7967142 74.0762781,62.7253474 76.78,67.52 L56,67.52 Z" id="Shape" fill="#EA352C" fill-rule="nonzero"></path>
                            <g id="check" transform="translate(24.000000, 0.000000)">
                                <circle id="Oval" stroke="#EA352C" stroke-width="2.5" cx="15.96" cy="15.52" r="15.27"></circle>
                                <path d="M23.06,10.11 C22.5235746,9.6370925 21.7059154,9.68624141 21.23,10.22 L14.16,18.09 L10.61,14.67 C10.2759567,14.3520336 9.79765486,14.2364305 9.35526623,14.3667373 C8.91287759,14.4970442 8.5736115,14.8534642 8.4652662,15.3017374 C8.35692091,15.7500106 8.49595665,16.2220336 8.83,16.54 L13.34,20.88 C13.5783501,21.118875 13.9025576,21.2521603 14.24,21.25 C14.5855201,21.2331383 14.9097903,21.0782091 15.14,20.82 L23.14,11.96 C23.3770897,11.7052035 23.5021096,11.3659781 23.4870732,11.0182617 C23.4720368,10.6705453 23.3182,10.3433786 23.06,10.11 Z" id="Path" fill="#EA352C"></path>
                            </g>
                        </g>
                    </g>
                    <g id="Group" transform="translate(22.000000, 49.000000)" fill-rule="nonzero">
                        <rect id="bg" fill="url(#linearGradient-2)" x="0" y="0" width="146.863636" height="81.650652" rx="4"></rect>
                        <g id="questions" transform="translate(163.000000, 3.000000)" fill="#EA352C">
                            <g id="speech_bubble" transform="translate(47.000000, 0.000000)">
                                <path d="M1.70053646,30.7406687 C0.90094797,30.9962164 0.0267532497,30.7279556 -0.491866029,30.0678947 C-1.01048531,29.4078338 -1.06430139,28.4949899 -0.631695122,27.7865953 L2.32832946,22.8561929 C-1.2799494,15.5398713 0.997702006,6.62456498 7.7750239,1.95436657 C14.7528088,-2.85396933 24.2372192,-1.60282391 29.7294109,4.85050135 C35.2216026,11.3038266 34.9402429,20.8662657 29.0781232,26.9855082 C23.3681226,32.9459594 14.1671588,33.7565521 7.51735813,28.9795028 L1.70053646,30.7406687 Z M0.957748561,28.3536414 L0.970290214,28.3498439 C0.966090478,28.3510422 0.961909401,28.352308 0.957748561,28.3536414 Z M2.16285194,27.9887421 L8.01771205,26.2159195 L8.52856419,26.6141962 C14.2002167,31.0359982 22.2978402,30.4492832 27.2728352,25.2560762 C32.2478303,20.0628691 32.4866113,11.9475304 27.8255624,6.47079792 C23.1645135,0.994065468 15.1153953,-0.067741965 9.19357056,4.01294019 C3.27174581,8.09362235 1.39789414,15.9932691 4.85600362,22.2989375 L5.20107115,22.9281488 L4.83169512,23.5434047 L2.16285194,27.9887421 Z" id="Path"></path>
                                <path d="M15.63,16.76 C15.6176335,16.4853296 15.7189045,16.2176848 15.91,16.02 C16.0994983,15.8266638 16.3592862,15.7184189 16.63,15.72 C17.4727562,15.7307521 18.2929903,15.4479127 18.95,14.92 C19.5735228,14.3855567 19.9103831,13.5896779 19.86,12.77 C19.8769652,12.0162642 19.5756666,11.2902436 19.03,10.77 C18.4948526,10.2501216 17.7760574,9.96260349 17.03,9.97 C16.5775046,9.97083854 16.1305709,10.0697781 15.72,10.26 C15.311013,10.4450269 14.9410697,10.7063629 14.63,11.03 C14.4049891,11.2597043 14.1012225,11.3955059 13.78,11.41 C13.577261,11.4115508 13.3799373,11.3446017 13.22,11.22 C12.9443676,11.0926273 12.7515425,10.8348582 12.7071906,10.5344752 C12.6628388,10.2340922 12.7729401,9.93159574 13,9.73 C13.4834928,9.1720408 14.0845497,8.72807834 14.76,8.43 C15.4663242,8.12486616 16.2308961,7.97809566 17,8 C17.8630456,7.99001614 18.7139792,8.20361081 19.47,8.62 C20.2068405,9.01883595 20.8219386,9.60974484 21.25,10.33 C21.6962918,11.0792277 21.9248492,11.9380493 21.91,12.81 C21.9092933,13.5778722 21.7094546,14.3324355 21.33,15 C20.9653524,15.6561528 20.4341709,16.2045804 19.79,16.59 C19.1198629,17.0029529 18.3636839,17.2561531 17.58,17.33 C17.58,17.33 17.58,17.33 17.58,17.33 L17.64,17.33 L17.64,18.73 C17.644221,18.9992573 17.5396681,19.2588369 17.35,19.45 C17.167098,19.6468942 16.9086696,19.7560893 16.64,19.75 C16.3623774,19.7570921 16.0943087,19.6484156 15.9,19.45 C15.711693,19.2598978 15.6165964,18.9965533 15.64,18.73 L15.63,16.76 Z M16.56,23.65 C16.2702159,23.6712431 15.9855212,23.5653951 15.78,23.36 C15.5820989,23.1463161 15.4808386,22.8606175 15.5,22.57 L15.5,22.16 C15.4827242,21.8666374 15.5835516,21.5785591 15.78,21.36 C15.9872701,21.1582535 16.2717414,21.0561356 16.56,21.08 L16.78,21.08 C17.0682586,21.0561356 17.3527299,21.1582535 17.56,21.36 C17.7564484,21.5785591 17.8572758,21.8666374 17.84,22.16 L17.84,22.57 C17.8591614,22.8606175 17.7579011,23.1463161 17.56,23.36 C17.3544788,23.5653951 17.0697841,23.6712431 16.78,23.65 L16.56,23.65 Z" id="_"></path>
                            </g>
                            <path d="M59.81,76.75 C54.25,64.45 43.01,56.75 30.47,56.75 C17.93,56.75 6.68,64.45 1.13,76.75 C0.821435369,77.4188462 1.06736408,78.2127214 1.7,78.59 C1.86827288,78.6831134 2.05768748,78.731328 2.25,78.73 L58.69,78.73 C58.8809688,78.7213727 59.0681476,78.6737272 59.24,78.59 C59.8688018,78.2097137 60.1137017,77.4191597 59.81,76.75 Z M4.33,76 C9.73,65.79 19.57,59.53 30.47,59.53 C41.37,59.53 51.21,65.79 56.6,76 L4.33,76 Z" id="Shape"></path>
                            <path d="M30.4,23.74 C22.1157288,23.74 15.4,30.4557288 15.4,38.74 C15.4,47.0242712 22.1157288,53.74 30.4,53.74 C38.6842712,53.74 45.4,47.0242712 45.4,38.74 C45.4,30.4557288 38.6842712,23.74 30.4,23.74 Z M42.67,36.56 C38.6112661,35.3103967 35.7844702,31.6335574 35.62,27.39 C39.3268557,29.1115056 41.9590418,32.5352144 42.67,36.56 Z M30.4,26.24 C31.3045055,26.2392915 32.2064288,26.3365249 33.09,26.53 C33.0999788,26.7031897 33.0999788,26.8768103 33.09,27.05 C33.0896909,30.5784672 31.2188509,33.8423117 28.1743234,35.6258288 C25.1297959,37.4093459 21.3679561,37.4451862 18.29,35.72 C19.6655224,30.1506378 24.6632889,26.2382656 30.4,26.24 Z M30.4,51.14 C23.5458745,51.1069963 18.0054215,45.5442028 18,38.69 C18,38.57 18,38.46 18,38.34 C19.6308678,39.1020938 21.4098627,39.4947703 23.21,39.49 C27.9717195,39.4885663 32.3155526,36.7712444 34.4,32.49 C36.0573021,35.8973081 39.1738782,38.366284 42.87,39.2 C42.6010856,45.8860476 37.0914187,51.1615427 30.4,51.14 Z" id="Shape"></path>
                        </g>
                    </g>
                </g>
            </g>
        </g>
    </g>
</svg>