<?xml version="1.0" encoding="UTF-8"?>
<svg width="39px" height="24px" viewBox="0 0 39 24" version="1.1" xmlns="http://www.w3.org/2000/svg" xmlns:xlink="http://www.w3.org/1999/xlink">
    <!-- Generator: Sketch 51.2 (57519) - http://www.bohemiancoding.com/sketch -->
    <title>logo</title>
    <desc>Created with Sketch.</desc>
    <defs></defs>
    <g id="Symbols" stroke="none" stroke-width="1" fill="none" fill-rule="evenodd">
        <g id="header---desktop" transform="translate(-40.000000, -24.000000)" fill="#000000">
            <g id="header">
                <g id="logo" transform="translate(40.000000, 24.000000)">
                    <path d="M24.576,2.85486198 C25.9294407,1.10526049 28.2047203,0 30.48,0 C35.52,0 38.688,3.12 38.688,9.504 L38.688,22.896 C37.584,22.896 33.072,22.896 32.016,22.896 L32.016,10.944 C32.016,7.968 30.384,6.48 28.128,6.48 C26.5809806,6.48 25.2831562,6.97839007 24.576,8.28932553 L24.576,22.896 L17.952,22.896 L17.952,20.352 C16.512,22.512 13.152,23.328 11.424,23.328 C5.712,23.328 0,18.864 0,11.664 C0,4.464 5.712,0 11.424,0 C12.864,0 16.224,0.48 17.952,2.976 L17.952,0.48 L24.576,0.48 L24.576,2.85486198 Z M6.912,11.664 C6.912,14.88 9.744,16.992 12.528,16.992 C15.264,16.992 17.952,15.024 17.952,11.664 C17.952,8.304 15.264,6.336 12.528,6.336 C9.744,6.336 6.912,8.448 6.912,11.664 Z" id="an"></path>
                </g>
            </g>
        </g>
    </g>
</svg>