<?xml version="1.0" encoding="UTF-8"?>
<svg width="127px" height="19px" viewBox="0 0 127 19" version="1.1" xmlns="http://www.w3.org/2000/svg" xmlns:xlink="http://www.w3.org/1999/xlink">
    <!-- Generator: Sketch 51.2 (57519) - http://www.bohemiancoding.com/sketch -->
    <title>phonetic</title>
    <desc>Created with Sketch.</desc>
    <defs></defs>
    <g id="all-pages-(desktop)" stroke="none" stroke-width="1" fill="none" fill-rule="evenodd">
        <g id="home---desktop" transform="translate(-237.000000, -239.000000)" fill="#000000">
            <g id="about-me" transform="translate(144.000000, 120.000000)">
                <g id="contents" transform="translate(93.000000, 60.000000)">
                    <g id="name-etc.">
                        <g id="phonetic" transform="translate(0.000000, 59.000000)">
                            <path d="M113.376,11.808 C113.376,12.072 113.376,12.48 113.352,12.72 L104.448,12.72 C104.688,14.448 106.08,15.528 107.88,15.528 C109.128,15.528 110.352,14.952 110.928,13.92 C111.552,14.208 112.296,14.52 112.944,14.808 C111.96,16.776 109.872,17.688 107.76,17.688 C104.568,17.688 102,15.36 102,11.808 C102,8.256 104.568,6 107.76,6 C110.952,6 113.376,8.256 113.376,11.808 Z M104.448,10.92 L110.952,10.92 C110.712,9.168 109.44,8.16 107.76,8.16 C106.032,8.16 104.688,9.192 104.448,10.92 Z" id="e" transform="translate(107.688000, 11.844000) rotate(-180.000000) translate(-107.688000, -11.844000) "></path>
                            <path d="M8.856,1.464 L11.304,1.464 L3.192,18 L0.744,18 L8.856,1.464 Z M21.408,18 L21.408,16.392 C20.664,17.616 19.032,18.24 17.64,18.24 C14.616,18.24 11.952,15.96 11.952,12.384 C11.952,8.808 14.616,6.552 17.64,6.552 C18.984,6.552 20.64,7.104 21.408,8.376 L21.408,6.792 L23.856,6.792 L23.856,18 L21.408,18 Z M14.496,12.36 C14.496,14.424 16.056,15.84 17.928,15.84 C19.752,15.84 21.384,14.568 21.384,12.36 C21.384,10.152 19.608,8.952 17.928,8.952 C16.056,8.952 14.496,10.296 14.496,12.36 Z M14.664,3.072 C14.664,2.232 15.36,1.608 16.224,1.608 C17.04,1.608 17.736,2.232 17.736,3.072 C17.736,3.912 17.04,4.56 16.224,4.56 C15.36,4.56 14.664,3.912 14.664,3.072 Z M18.768,3.072 C18.768,2.232 19.464,1.608 20.328,1.608 C21.168,1.608 21.864,2.232 21.864,3.072 C21.864,3.912 21.168,4.56 20.328,4.56 C19.464,4.56 18.768,3.912 18.768,3.072 Z M29.784,11.976 L29.784,18 L27.312,18 L27.312,6.792 L29.784,6.792 L29.784,8.472 C30.432,7.176 31.968,6.552 33.216,6.552 C35.928,6.552 37.488,8.304 37.488,11.472 L37.488,18 L35.016,18 L35.016,11.76 C35.016,9.984 34.104,8.976 32.664,8.976 C31.2,8.976 29.784,9.768 29.784,11.976 Z M40.68,13.44 L40.68,11.208 L49.056,11.208 L49.056,13.44 L40.68,13.44 Z M61.056,18 L61.056,16.368 C60.36,17.568 58.8,18.24 57.264,18.24 C54.24,18.24 51.672,15.936 51.672,12.408 C51.672,8.808 54.24,6.552 57.264,6.552 C58.848,6.552 60.36,7.176 61.056,8.4 L61.056,0.696 L63.504,0.696 L63.504,18 L61.056,18 Z M61.008,12.36 C61.008,10.152 59.256,8.952 57.576,8.952 C55.704,8.952 54.216,10.296 54.216,12.36 C54.216,14.424 55.704,15.84 57.576,15.84 C59.4,15.84 61.008,14.544 61.008,12.36 Z M69.432,13.968 L69.432,18 L66.96,18 L66.96,6.792 L69.432,6.792 L69.432,9.36 C70.008,7.368 71.112,6.552 72.504,6.552 C73.296,6.552 74.136,6.744 74.496,6.984 L74.088,9.264 C73.464,8.952 72.912,8.88 72.432,8.88 C70.32,8.88 69.432,10.992 69.432,13.968 Z M85.032,18 L85.032,16.392 C84.288,17.616 82.656,18.24 81.264,18.24 C78.24,18.24 75.576,15.96 75.576,12.384 C75.576,8.808 78.24,6.552 81.264,6.552 C82.608,6.552 84.264,7.104 85.032,8.376 L85.032,6.792 L87.48,6.792 L87.48,18 L85.032,18 Z M78.12,12.36 C78.12,14.424 79.68,15.84 81.552,15.84 C83.376,15.84 85.008,14.568 85.008,12.36 C85.008,10.152 83.232,8.952 81.552,8.952 C79.68,8.952 78.12,10.296 78.12,12.36 Z M78.792,4.272 L78.792,2.328 L84.984,2.328 L84.984,4.272 L78.792,4.272 Z M90.792,13.44 L90.792,11.208 L99.168,11.208 L99.168,13.44 L90.792,13.44 Z M123.6705,1.464 L126.1185,1.464 L118.0065,18 L115.5585,18 L123.6705,1.464 Z" id="/än-drā-ə/"></path>
                        </g>
                    </g>
                </g>
            </g>
        </g>
    </g>
</svg>