<?xml version="1.0" encoding="UTF-8"?>
<svg width="426px" height="455px" viewBox="0 0 426 455" version="1.1" xmlns="http://www.w3.org/2000/svg" xmlns:xlink="http://www.w3.org/1999/xlink">
    <!-- Generator: Sketch 52 (66869) - http://www.bohemiancoding.com/sketch -->
    <title>portal graphic</title>
    <desc>Created with Sketch.</desc>
    <defs>
        <linearGradient x1="124.113168%" y1="28.5872113%" x2="19.7265763%" y2="69.1769306%" id="linearGradient-1">
            <stop stop-color="#50BEFF" stop-opacity="0" offset="0%"></stop>
            <stop stop-color="#59A3CF" stop-opacity="0.12" offset="100%"></stop>
        </linearGradient>
        <linearGradient x1="0%" y1="50%" x2="100%" y2="50%" id="linearGradient-2">
            <stop stop-color="#59A3CF" offset="0%"></stop>
            <stop stop-color="#49C6F4" offset="100%"></stop>
        </linearGradient>
    </defs>
    <g id="all-pages-(desktop)" stroke="none" stroke-width="1" fill="none" fill-rule="evenodd">
        <g id="MedifriendRx-Portal---desktop" transform="translate(-423.000000, -2404.000000)">
            <g id="portal-graphic" transform="translate(423.000000, 2404.000000)">
                <rect id="bg" fill="url(#linearGradient-1)" fill-rule="nonzero" transform="translate(213.000000, 248.000000) rotate(-90.000000) translate(-213.000000, -248.000000) " x="29" y="35" width="368" height="426" rx="8"></rect>
                <g id="discussion" transform="translate(100.000000, 334.000000) rotate(-90.000000) translate(-100.000000, -334.000000) translate(-21.000000, 293.000000)">
                    <rect id="bg" fill="url(#linearGradient-2)" fill-rule="nonzero" x="0" y="0" width="146.863636" height="81.650652" rx="4"></rect>
                    <g id="Asset-4" transform="translate(202.370250, 39.500000) rotate(90.000000) translate(-202.370250, -39.500000) translate(162.870250, 0.000000)" fill="#59A3CF">
                        <path d="M44.61,47 C47.5833752,55.6067995 44.8561477,65.1542619 37.785283,70.8919297 C30.7144184,76.6295975 20.8099627,77.3321406 13,72.65 C12.8076581,72.5314196 12.5859554,72.4690657 12.36,72.47 C12.1540292,72.4710245 11.9514501,72.5225277 11.77,72.62 L4.64,76.41 C4.63478913,76.3367592 4.63478913,76.2632408 4.64,76.19 L8,69.66 C8.23254306,69.2054323 8.1652395,68.6551267 7.83,68.27 C1.3581974,60.8075596 0.761042372,49.9097888 6.37872016,41.7848924 C11.9963979,33.659996 22.402947,30.3703546 31.67,33.79 C31.2710127,32.8301581 30.9369278,31.8446078 30.67,30.84 C20.55419,28.0056652 9.7664685,32.0360228 3.98716985,40.8088657 C-1.7921288,49.5817086 -1.23710112,61.0843457 5.36,69.26 L2.46,75 C1.92513115,75.7861552 1.87005575,76.8039951 2.31697218,77.6432748 C2.76388862,78.4825545 3.63915835,79.0049856 4.59,79 C4.84340527,79.0012552 5.09577619,78.9676058 5.34,78.9 L5.57,78.8 L12.32,75.2 C16.4294488,77.4995846 21.1233812,78.5426807 25.82,78.2 C32.9863921,77.7196716 39.5654922,74.0692446 43.7656055,68.2428444 C47.9657188,62.4164441 49.3494625,55.0208084 47.54,48.07 C46.5414345,47.7764247 45.5627537,47.4190225 44.61,47 Z" id="Path"></path>
                        <path d="M35.63,49.07 L12.63,49.07 C11.9396441,49.07 11.38,48.5103559 11.38,47.82 C11.38,47.1296441 11.9396441,46.57 12.63,46.57 L35.63,46.57 C36.3203559,46.57 36.88,47.1296441 36.88,47.82 C36.88,48.5103559 36.3203559,49.07 35.63,49.07 Z" id="Path"></path>
                        <path d="M35.66,55.71 L12.71,55.71 C12.0196441,55.71 11.46,55.1503559 11.46,54.46 C11.46,53.7696441 12.0196441,53.21 12.71,53.21 L35.66,53.21 C36.3503559,53.21 36.91,53.7696441 36.91,54.46 C36.91,55.1503559 36.3503559,55.71 35.66,55.71 Z" id="Path"></path>
                        <path d="M35.6,62.31 L12.6,62.31 C11.9096441,62.31 11.35,61.7503559 11.35,61.06 C11.35,60.3696441 11.9096441,59.81 12.6,59.81 L35.6,59.81 C36.2903559,59.81 36.85,60.3696441 36.85,61.06 C36.85,61.7503559 36.2903559,62.31 35.6,62.31 Z" id="Path"></path>
                        <g id="speech_bubble" transform="translate(29.000000, 0.000000)">
                            <path d="M44.65,50 C44.3991227,50.0019134 44.1494735,49.9648034 43.91,49.89 C43.8296366,49.870474 43.752273,49.8402013 43.68,49.8 L36.92,46.2 C32.8147252,48.5009959 28.1235438,49.5442535 23.43,49.2 C11.2937454,48.2340522 1.7247166,38.4730455 1,26.32 C0.476023299,15.5697276 7.12649332,5.76925995 17.3099144,2.28488857 C27.4933355,-1.19948281 38.7535986,2.47262721 44.9250945,11.2905378 C51.0965904,20.1084484 50.6908344,31.9453939 43.93,40.32 L46.83,46.05 C47.3583682,46.8390077 47.4086122,47.8550689 46.960664,48.6923553 C46.5127158,49.5296416 45.6395805,50.0516949 44.69,50.05 L44.65,50 Z M36.9,43.54 C37.1059708,43.5410245 37.3085499,43.5925277 37.49,43.69 L44.61,47.48 C44.61,47.42 44.61,47.31 44.61,47.26 L41.3,40.73 C41.0702708,40.2749369 41.1373721,39.7262856 41.47,39.34 C47.8522236,31.9788394 48.5343503,21.262392 43.1369632,13.1514318 C37.739576,5.04047161 27.5910455,1.53121661 18.3362552,4.57560805 C9.08146481,7.61999949 2.9981448,16.4687711 3.47,26.2 C4.09211321,37.1239797 12.6916071,45.9071687 23.6,46.76 C28.0247472,47.0834847 32.4417266,46.0359797 36.25,43.76 C36.4419008,43.6274655 36.6670525,43.5512603 36.9,43.54 Z" id="Shape" fill-rule="nonzero"></path>
                            <path d="M36.85,20.26 L13.9,20.26 C13.2096441,20.26 12.65,19.7003559 12.65,19.01 C12.65,18.3196441 13.2096441,17.76 13.9,17.76 L36.85,17.76 C37.5403559,17.76 38.1,18.3196441 38.1,19.01 C38.1,19.7003559 37.5403559,20.26 36.85,20.26 Z" id="Path"></path>
                            <path d="M36.88,26.9 L13.93,26.9 C13.2396441,26.9 12.68,26.3403559 12.68,25.65 C12.68,24.9596441 13.2396441,24.4 13.93,24.4 L36.88,24.4 C37.5703559,24.4 38.13,24.9596441 38.13,25.65 C38.13,26.3403559 37.5703559,26.9 36.88,26.9 Z" id="Path"></path>
                            <path d="M36.81,33.5 L13.81,33.5 C13.1196441,33.5 12.56,32.9403559 12.56,32.25 C12.56,31.5596441 13.1196441,31 13.81,31 L36.81,31 C37.5003559,31 38.06,31.5596441 38.06,32.25 C38.06,32.9403559 37.5003559,33.5 36.81,33.5 Z" id="Path"></path>
                        </g>
                    </g>
                </g>
                <g id="inventory" transform="translate(212.677900, 285.000000) rotate(-90.000000) translate(-212.677900, -285.000000) translate(42.677900, 244.000000)">
                    <rect id="bg" fill="url(#linearGradient-2)" fill-rule="nonzero" x="0" y="0" width="246.404545" height="81.650652" rx="4"></rect>
                    <g id="Asset-10" transform="translate(301.204297, 40.000000) rotate(90.000000) translate(-301.204297, -40.000000) translate(261.204297, 1.500000)" fill="#59A3CF">
                        <path d="M73.32,0 L6.32,0 C2.8269965,0.0219647999 0.00542319331,2.85693165 0,6.35 L0,48.73 C0.00550625506,52.2347249 2.84527514,55.0744937 6.35,55.08 L31,55.08 L30.32,62.76 C30.2774344,63.1238862 30.3940874,63.4884269 30.64,63.76 C30.878685,64.0211797 31.2161846,64.1699698 31.57,64.17 L48,64.17 C48.3535837,64.1690888 48.6902411,64.0184723 48.9265662,63.7554653 C49.1628914,63.4924583 49.276774,63.1416674 49.24,62.79 L48.47,55.13 L73.32,55.13 C76.8270082,55.13 79.67,52.2870082 79.67,48.78 L79.67,6.35 C79.67,2.84299184 76.8270082,2.14742316e-16 73.32,0 Z M2.5,6.35 C2.50549554,4.22598421 4.22598421,2.50549554 6.35,2.5 L73.35,2.5 C75.4762963,2.5 77.2,4.22370371 77.2,6.35 L77.2,44.77 L2.5,44.77 L2.5,6.35 Z M32.92,61.62 L33.5,55.08 L46,55.08 L46.66,61.62 L32.92,61.62 Z M77.17,48.73 C77.17,50.8562963 75.4462963,52.58 73.32,52.58 L6.32,52.58 C4.20770911,52.5581166 2.5053592,50.8423974 2.5,48.73 L2.5,47.27 L77.17,47.27 L77.17,48.73 Z" id="Shape" fill-rule="nonzero"></path>
                        <path d="M71.68,76.08 L7.89,76.08 C7.45502774,76.0791393 7.05177833,75.8522222 6.82529182,75.480866 C6.59880531,75.1095097 6.58165141,74.6471168 6.78,74.26 L10.11,67.78 C10.321712,67.3617332 10.7512066,67.0986193 11.22,67.1 L68.55,67.1 C69.0320611,67.0989755 69.4717502,67.3752404 69.68,67.81 L72.81,74.29 C72.9957308,74.6777421 72.969164,75.1337225 72.7396608,75.4972719 C72.5101576,75.8608212 72.1099291,76.0809147 71.68,76.08 Z M9.94,73.58 L69.69,73.58 L67.77,69.58 L12,69.58 L9.94,73.58 Z" id="Shape" fill-rule="nonzero"></path>
                        <path d="M62.3,18.2 L17.38,18.2 C16.6896441,18.2 16.13,17.6403559 16.13,16.95 C16.13,16.2596441 16.6896441,15.7 17.38,15.7 L62.3,15.7 C62.9903559,15.7 63.55,16.2596441 63.55,16.95 C63.55,17.6403559 62.9903559,18.2 62.3,18.2 Z" id="Path"></path>
                        <path d="M62.25,23.75 L17.33,23.75 C16.6396441,23.75 16.08,23.1903559 16.08,22.5 C16.08,21.8096441 16.6396441,21.25 17.33,21.25 L62.25,21.25 C62.9403559,21.25 63.5,21.8096441 63.5,22.5 C63.5,23.1903559 62.9403559,23.75 62.25,23.75 Z" id="Path"></path>
                        <path d="M62.25,29.3 L17.33,29.3 C16.6396441,29.3 16.08,28.7403559 16.08,28.05 C16.08,27.3596441 16.6396441,26.8 17.33,26.8 L62.25,26.8 C62.9403559,26.8 63.5,27.3596441 63.5,28.05 C63.5,28.7403559 62.9403559,29.3 62.25,29.3 Z" id="Path"></path>
                        <path d="M62.25,34.85 L17.33,34.85 C16.6396441,34.85 16.08,34.2903559 16.08,33.6 C16.08,32.9096441 16.6396441,32.35 17.33,32.35 L62.25,32.35 C62.9403559,32.35 63.5,32.9096441 63.5,33.6 C63.5,34.2903559 62.9403559,34.85 62.25,34.85 Z" id="Path"></path>
                    </g>
                </g>
                <g id="notes" transform="translate(325.355800, 227.500000) rotate(-90.000000) translate(-325.355800, -227.500000) translate(97.855800, 186.500000)">
                    <rect id="bg" fill="url(#linearGradient-2)" fill-rule="nonzero" x="0" y="0" width="359" height="81.650652" rx="4"></rect>
                    <g id="Asset-11" transform="translate(414.577430, 42.650652) rotate(90.000000) translate(-414.577430, -42.650652) translate(375.577430, 3.150652)" fill="#59A3CF">
                        <path d="M75.64,32 L73.82,30.5 C71.4434006,28.4896887 67.8884887,28.7803419 65.87,31.15 L59.48,38.68 L59.48,9.13 C59.4690004,4.09220345 55.3877966,0.0109995951 50.35,0 L9.12,0 C4.08383053,0.0110170898 0.00549799498,4.09382148 0,9.13 L0,69 C0.00551128279,74.0345523 4.0854477,78.1144887 9.12,78.12 L50.35,78.12 C55.3861785,78.114502 59.4689829,74.0361695 59.48,69 L59.48,59.8 L76.29,40 C77.2712122,38.8557682 77.7545299,37.3668979 77.6324616,35.8645187 C77.5103933,34.3621396 76.7930603,32.9708221 75.64,32 Z M57,69 C56.994483,72.657742 54.0277462,75.6200042 50.37,75.62 L9.12,75.62 C5.46615843,75.6144931 2.50550693,72.6538416 2.5,69 L2.5,9.13 C2.49999584,5.4722538 5.46225796,2.50551696 9.12,2.5 L50.35,2.5 C52.111848,2.4946852 53.8033571,3.19085407 55.0510522,4.43479678 C56.2987474,5.67873949 57.000008,7.36814396 57,9.13 L57,41.62 L43.39,57.62 C43.2526722,57.7913608 43.159912,57.9940591 43.12,58.21 L41.12,69.16 C41.0711422,69.5922067 41.239995,70.0204794 41.5706648,70.3030518 C41.9013346,70.5856242 42.3506953,70.685643 42.77,70.57 L53.26,66.84 C53.4652015,66.7582198 53.6496522,66.6318369 53.8,66.47 L57,62.75 L57,69 Z M47.07,57.2 L53.68,62.81 L52.13,64.63 L44,67.52 L45.5,59 L47.07,57.2 Z M55.29,60.9 L48.68,55.29 L63.16,38.2 L69.77,43.81 L55.29,60.9 Z M74.38,38.38 L71.38,41.91 L64.78,36.3 L67.78,32.77 C68.9029401,31.4480164 70.8833201,31.2826122 72.21,32.4 L74,34 C75.2930384,35.1156015 75.46159,37.0583806 74.38,38.38 Z" id="Shape" fill-rule="nonzero"></path>
                        <path d="M49.1,17.32 L10.41,17.32 C9.71964406,17.32 9.16,16.7603559 9.16,16.07 C9.16,15.3796441 9.71964406,14.82 10.41,14.82 L49.1,14.82 C49.7903559,14.82 50.35,15.3796441 50.35,16.07 C50.35,16.7603559 49.7903559,17.32 49.1,17.32 Z" id="Path"></path>
                        <path d="M49.1,24.25 L10.42,24.25 C9.72964406,24.25 9.17,23.6903559 9.17,23 C9.17,22.3096441 9.72964406,21.75 10.42,21.75 L49.1,21.75 C49.7903559,21.75 50.35,22.3096441 50.35,23 C50.35,23.6903559 49.7903559,24.25 49.1,24.25 Z" id="Path"></path>
                        <path d="M49.1,31.19 L10.42,31.19 C9.72964406,31.19 9.17,30.6303559 9.17,29.94 C9.17,29.2496441 9.72964406,28.69 10.42,28.69 L49.1,28.69 C49.7903559,28.69 50.35,29.2496441 50.35,29.94 C50.35,30.6303559 49.7903559,31.19 49.1,31.19 Z" id="Path"></path>
                        <path d="M49.1,38.13 L10.42,38.13 C9.72964406,38.13 9.17,37.5703559 9.17,36.88 C9.17,36.1896441 9.72964406,35.63 10.42,35.63 L49.1,35.63 C49.7903559,35.63 50.35,36.1896441 50.35,36.88 C50.35,37.5703559 49.7903559,38.13 49.1,38.13 Z" id="Path"></path>
                        <path d="M49.1,45.07 L10.42,45.07 C9.72964406,45.07 9.17,44.5103559 9.17,43.82 C9.17,43.1296441 9.72964406,42.57 10.42,42.57 L49.1,42.57 C49.7903559,42.57 50.35,43.1296441 50.35,43.82 C50.35,44.5103559 49.7903559,45.07 49.1,45.07 Z" id="Path"></path>
                        <path d="M41.54,52 L10.19,52 C9.60331315,51.8706944 9.18549955,51.3507673 9.18549955,50.75 C9.18549955,50.1492327 9.60331315,49.6293056 10.19,49.5 L41.54,49.5 C42.1266868,49.6293056 42.5445005,50.1492327 42.5445005,50.75 C42.5445005,51.3507673 42.1266868,51.8706944 41.54,52 Z" id="Path"></path>
                        <path d="M36.19,59 L10.42,59 C9.72964406,59 9.17,58.4403559 9.17,57.75 C9.17,57.0596441 9.72964406,56.5 10.42,56.5 L36.19,56.5 C36.8803559,56.5 37.44,57.0596441 37.44,57.75 C37.44,58.4403559 36.8803559,59 36.19,59 Z" id="Path"></path>
                    </g>
                </g>
            </g>
        </g>
    </g>
</svg>